<svg width="822" height="602" viewBox="0 0 822 602" fill="none" xmlns="http://www.w3.org/2000/svg">
<path fill-rule="evenodd" clip-rule="evenodd" d="M59.7742 433.556C77.8874 363.525 261.171 403.42 381.33 381.77C501.489 360.12 643.647 259.291 737.73 308.682C831.813 358.073 731.71 477.466 515.925 504.409C300.139 531.352 41.661 503.586 59.7742 433.556Z" fill="#333333"/>
<g opacity="0.5">
<path fill-rule="evenodd" clip-rule="evenodd" d="M137.908 71.6723C136.335 73.2428 136.946 78.8243 136.913 80.8898C136.862 84.1054 137.063 87.2923 137.331 90.4963C137.512 92.6415 138.527 113.114 141.353 111.542C142.946 110.656 141.947 104.733 141.944 102.86C141.938 98.6959 141.764 94.5416 141.487 90.3864C141.229 86.5288 141.067 82.7162 141.215 78.8512C141.251 77.9079 142.134 67.4388 137.908 71.6723" fill="#89C5CC"/>
<path fill-rule="evenodd" clip-rule="evenodd" d="M206.409 69.1487C192.896 69.2562 179.388 69.9228 165.881 70.3311C159.381 70.5277 152.886 70.7775 146.394 71.1377C144.181 71.2605 139.436 70.5523 137.593 71.731C133.501 74.3482 140.1 74.9601 141.859 74.8961C168.59 73.9268 195.329 72.6502 222.082 72.59C235.206 72.5608 248.323 72.9344 261.448 72.8505C266.465 72.8185 272.02 70.657 273.287 76.4967C274.717 83.0864 273.074 90.4234 272.627 97.0451C272.329 101.465 272.435 105.794 272.634 110.211C272.762 113.04 272.429 116.228 272.93 119.005C273.411 121.679 275.333 123.282 277.095 120.287C278.148 118.497 277.624 114.078 277.694 112.005C277.788 109.213 277.7 106.421 277.7 103.628C277.699 96.8114 278.661 90.0215 278.534 83.206C278.452 78.8112 278.219 70.8438 272.676 69.7879C266.572 68.6248 259.069 69.7944 252.822 69.723C237.344 69.5464 221.892 69.0277 206.409 69.1487" fill="#89C5CC"/>
<path fill-rule="evenodd" clip-rule="evenodd" d="M169.174 111.786C164.078 111.786 158.982 111.817 153.887 111.901C149.517 111.973 142.647 111.063 138.579 112.626C135.795 113.696 135.056 116.805 138.579 117.633C142.423 118.536 148.215 117.059 152.236 116.988C172.4 116.632 192.758 116.168 212.894 117.444C231.762 118.638 250.993 119.797 269.888 118.536C271.478 118.43 279.586 118.107 275.886 115.068C273.728 113.294 264.979 114.46 262.174 114.375C252.28 114.077 242.376 114.011 232.485 113.636C222.722 113.265 213.004 112.168 203.238 111.896C191.893 111.58 180.523 111.786 169.174 111.786" fill="#89C5CC"/>
<path fill-rule="evenodd" clip-rule="evenodd" d="M164.075 82.8039C172.017 83.1506 179.875 94.6687 171.839 100.235C164.3 105.459 150.172 99.7343 154.364 89.6059C153.761 91.0702 155.126 88.015 155.143 87.9946C155.94 87.0555 157.371 86.0158 158.354 85.2755C159.478 84.4282 160.649 83.4955 162.005 83.0709C162.895 82.7923 162.755 83.8408 164.075 82.8039M160.207 78.6496C156.49 80.101 154.794 81.7382 152.239 84.7007C150.472 86.751 148.218 87.8296 148.238 90.6002C148.243 91.2135 149.03 91.8875 149.167 92.478C149.355 93.2943 149.137 94.3401 149.286 95.2073C150.824 104.156 161.501 107.174 169.317 105.484C176.125 104.012 181.217 97.4769 179.64 90.3703C178.052 83.2165 167.444 75.8193 160.207 78.6496" fill="#89C5CC"/>
<path fill-rule="evenodd" clip-rule="evenodd" d="M156.896 91.1427C156.896 94.362 161.982 94.362 161.982 91.1427C161.982 87.96 156.896 87.8233 156.896 91.1427" fill="#89C5CC"/>
<path fill-rule="evenodd" clip-rule="evenodd" d="M163.258 90.491C163.258 93.0493 167.299 93.0493 167.299 90.491C167.299 87.962 163.258 87.854 163.258 90.491" fill="#89C5CC"/>
<path fill-rule="evenodd" clip-rule="evenodd" d="M164.51 95.7668C163.216 96.2641 161.574 95.2328 160.512 95.9123C158.631 97.1166 160.517 98.2064 161.525 98.6903C166.065 100.869 166.873 94.8615 164.51 95.7668" fill="#89C5CC"/>
<path fill-rule="evenodd" clip-rule="evenodd" d="M233.85 88.6318C233.714 88.6893 233.233 88.8932 233.85 88.6318ZM214.077 85.7421C210.679 86.5092 207.81 89.6826 204.118 89.258C201.289 88.9326 199.373 86.2024 196.58 85.8056C193.007 85.2975 183.282 93.4484 188.395 94.8469C191.378 95.6632 193.033 90.212 195.668 89.9223C197.753 89.6933 200.588 92.2497 202.748 92.6136C206.778 93.2927 209.546 91.0728 213.083 89.6414C216.928 88.0857 219.115 89.4865 222.458 91.2156C225.097 92.5802 227.583 93.4688 230.602 92.9056C233.436 92.3777 236.996 89.4634 239.849 89.7624C242.643 90.0553 244.637 92.971 247.511 93.2417C248.696 93.3529 250.46 93.7567 250.261 91.9285C250.101 90.4646 248.468 90.7126 247.446 90.1805C244.818 88.8121 242.36 86.3882 239.189 86.595C236.803 86.7507 234.631 88.4269 232.433 89.2288C225.233 91.8548 221.185 84.1479 214.077 85.7421" fill="#89C5CC"/>
<path fill-rule="evenodd" clip-rule="evenodd" d="M220.092 132.111C206.204 132.239 192.268 132.445 178.419 133.558C175.135 133.822 141.608 136.988 141.672 137.216C141.789 137.637 146.101 138.282 146.075 138.381C145.784 137.661 145.12 137.362 144.082 137.487C175.879 137.487 207.576 134.64 239.415 135.152C247.416 135.28 255.446 135.227 263.44 135.479C265.436 135.542 270.381 136.972 271.949 136.071C276.062 133.706 268.589 133.433 267.352 133.333C251.683 132.08 235.805 131.954 220.092 132.111" fill="#69A1AC"/>
<path fill-rule="evenodd" clip-rule="evenodd" d="M137.556 138.859C135.479 140.941 137.391 148.43 137.473 151.245C137.591 155.314 137.494 159.412 137.851 163.471C138.259 168.107 138.891 173.047 140.107 177.545C140.777 180.023 143.129 183.961 144.061 179.458C144.726 176.242 143.716 171.976 143.364 168.7C142.894 164.317 142.78 159.992 142.763 155.587C142.747 151.75 142.673 147.896 142.358 144.071C142.195 142.084 141.196 135.238 137.556 138.859" fill="#69A1AC"/>
<path fill-rule="evenodd" clip-rule="evenodd" d="M189.794 176.998C179.938 177.167 170.061 177.4 160.222 178.015C156.189 178.268 152.159 178.644 148.141 179.07C147.322 179.157 138.247 179.525 142.302 182.874C144.132 184.387 151.661 182.296 154.147 182.078C158.33 181.711 162.511 181.473 166.705 181.296C176.424 180.883 186.172 180.519 195.9 180.687C213.667 180.996 231.319 181.133 249.09 180.737C251.615 180.681 271.396 181.209 272.068 178.583C272.609 176.466 265.535 177.437 264.245 177.475C259.514 177.617 254.782 177.584 250.048 177.56C229.997 177.457 209.83 176.659 189.794 176.998" fill="#69A1AC"/>
<path fill-rule="evenodd" clip-rule="evenodd" d="M268.719 135.347C269.031 144.122 270.526 152.887 271.004 161.689C271.222 165.712 271.479 169.732 271.676 173.757C271.74 175.055 271.216 178.184 272.752 178.931C274.858 179.955 275.141 177.891 275.536 176.495C276.675 172.462 275.904 167.223 275.801 163.081C275.701 159.07 275.694 155.051 275.398 151.047C275.095 146.956 274.271 142.943 273.889 138.867C273.728 137.143 274.293 134.274 272.463 133.204C270.881 132.279 268.65 133.445 268.719 135.347" fill="#69A1AC"/>
<path fill-rule="evenodd" clip-rule="evenodd" d="M171.845 149.944C171.882 149.973 171.919 150.002 171.956 150.031C171.919 150.002 171.882 149.973 171.845 149.944M163.469 147.344C166.592 148.236 169.157 147.904 172.141 150.177C174.614 152.063 177.151 154.821 177.971 157.869C179.866 164.911 173.441 168.771 167.418 168.847C161.248 168.924 152.115 167.493 152.431 159.585C152.674 153.509 157.11 147.58 163.469 147.344M163.689 143.364C155.59 143.767 149.057 152.863 149.127 160.518C149.212 169.797 159.725 172.188 167.194 172.252C175.623 172.324 184.028 166.504 181.77 157.025C179.96 149.431 171.477 142.959 163.689 143.364" fill="#69A1AC"/>
<path fill-rule="evenodd" clip-rule="evenodd" d="M155.542 155.822C155.542 158.41 159.63 158.41 159.63 155.822C159.63 153.265 155.542 153.155 155.542 155.822" fill="#69A1AC"/>
<path fill-rule="evenodd" clip-rule="evenodd" d="M164.117 154.687C164.117 157.295 168.237 157.295 168.237 154.687C168.237 152.109 164.117 151.998 164.117 154.687" fill="#69A1AC"/>
<path fill-rule="evenodd" clip-rule="evenodd" d="M159.39 160.589C156.729 163.245 166.076 167.902 168.281 164.207C170.091 161.171 166.149 162.178 164.752 162.014C163.233 161.835 160.629 159.352 159.39 160.589" fill="#69A1AC"/>
<path fill-rule="evenodd" clip-rule="evenodd" d="M234.124 154.74C233.868 154.848 233.868 154.848 234.124 154.74ZM199.022 150.416C196.328 150.921 187.486 153.904 187.367 157.1C187.148 162.91 195.808 156.959 197.688 156.195C202.796 154.119 205.48 158.354 210.612 158.577C215.068 158.771 219.166 154.957 223.364 155.408C227.763 155.881 229.878 160.56 234.956 158.076C237.643 156.762 237.575 154.735 234.559 154.544C232.737 154.429 231.484 155.182 229.584 154.398C226.612 153.172 225.415 151.176 221.859 151.493C219.175 151.733 216.75 153.245 214.13 153.831C208.132 155.171 204.805 149.332 199.022 150.416" fill="#69A1AC"/>
<path fill-rule="evenodd" clip-rule="evenodd" d="M254.818 157.263C254.632 157.341 254.632 157.341 254.818 157.263ZM255.497 154.844C255.527 154.857 255.73 155.139 255.497 154.844ZM252.409 152.997C252.293 153.086 252.293 153.086 252.409 152.997ZM252.476 152.974C253.075 153.333 257.89 156.625 254.393 157.401C252.617 157.794 251.148 154.222 252.476 152.974M250.882 149.327C243.169 152.844 251.469 165.429 257.522 160.315C260.069 158.164 260.404 153.815 257.926 151.573C256.442 150.23 252.897 148.406 250.882 149.327" fill="#69A1AC"/>
<path fill-rule="evenodd" clip-rule="evenodd" d="M178.477 198.921C168.852 198.924 159.143 198.722 149.531 199.292C147.914 199.388 141.752 199.08 140.918 200.771C139.394 203.864 145.734 202.329 146.655 202.236C165.793 200.32 185.784 201.423 204.985 201.969C220.689 202.415 236.308 202.692 251.993 203.502C256.116 203.714 260.235 203.949 264.355 204.198C265.698 204.279 269.078 205.169 269.361 203.024C269.623 201.039 265.407 201.487 264.354 201.432C255.979 200.991 247.61 200.529 239.237 200.058C219.085 198.922 198.661 198.917 178.477 198.921" fill="#89C5CC"/>
<path fill-rule="evenodd" clip-rule="evenodd" d="M140.609 202.36C138.812 204.147 139.654 210.971 139.604 213.226C139.516 217.171 139.33 221.113 139.247 225.056C139.16 229.178 139.28 233.319 139.524 237.435C139.626 239.163 141.045 247.515 143.278 242.735C144.276 240.599 143.254 234.65 143.269 232.23C143.297 227.826 143.534 223.44 143.753 219.041C143.941 215.26 143.948 211.475 144.114 207.693C144.166 206.487 144.309 198.649 140.609 202.36" fill="#89C5CC"/>
<path fill-rule="evenodd" clip-rule="evenodd" d="M270.98 237.595C261.613 238.555 252.096 238.102 242.694 238.811C234.591 239.422 226.495 239.672 218.371 239.844C199.975 240.232 181.547 240.611 163.204 242.144C159.024 242.493 154.848 242.864 150.657 243.051C148.561 243.144 139.764 242.19 139.109 244.4C137.993 248.164 147.4 246.674 149.429 246.615C153.891 246.487 158.332 246.164 162.781 245.825C181.485 244.4 200.259 243.974 219.003 243.382C229.196 243.06 239.319 242.314 249.49 241.636C254.56 241.298 259.643 241.287 264.712 240.959C266.039 240.873 270.734 241.042 271.688 239.975C272.343 239.242 272.509 237.453 270.98 237.595" fill="#89C5CC"/>
<path fill-rule="evenodd" clip-rule="evenodd" d="M267.805 203C268.126 211.983 268.633 220.958 268.937 229.94C269.028 232.641 268.212 237.482 269.716 239.864C272.135 243.695 274.022 239.641 274.465 237.254C275.863 229.721 274.36 221.4 273.97 213.82C273.821 210.929 274.719 204.493 273.322 201.905C271.991 199.44 267.685 199.687 267.805 203" fill="#89C5CC"/>
<path fill-rule="evenodd" clip-rule="evenodd" d="M252.079 215.793C255.668 216.766 256.192 224.567 252.143 225.145C246.116 226.003 248.752 217.402 252.079 215.793M251.074 212.691C249.979 212.657 247.453 212.355 246.778 213.246C246.214 213.992 246.784 215.564 246.718 216.275C246.481 218.813 244.417 220.279 245.34 223.276C245.966 225.31 247.643 227.221 249.687 227.927C260.472 231.655 260.341 210.816 251.074 212.691" fill="#89C5CC"/>
<path fill-rule="evenodd" clip-rule="evenodd" d="M153.702 214.091C153.675 214.125 153.648 214.159 153.622 214.194C153.648 214.159 153.675 214.125 153.702 214.091M162.173 209.584C162.131 209.223 162.088 208.862 162.046 208.501C167.894 211.261 172.547 216.396 170.605 223.288C169.124 228.546 163.771 230.411 158.784 229.113C153.264 227.675 150.626 223.125 152.114 217.538C152.801 214.96 154.91 211.496 157.635 210.667C158.904 210.281 161.71 211.265 162.173 209.584M158.753 207.401C157.274 207.501 155.834 208.117 154.627 208.96C155.757 208.004 157.263 207.435 158.753 207.401M158.796 204.005C155.142 204.117 152.747 206.329 150.58 208.985C149.9 209.819 147.6 212.03 147.885 213.153C148.11 214.042 148.699 215.34 149.94 214.35C143.442 227.3 160.228 238.346 170.475 229.34C180.039 220.936 170.55 203.611 158.796 204.005" fill="#89C5CC"/>
<path fill-rule="evenodd" clip-rule="evenodd" d="M155.476 216.035C155.476 217.759 158.153 217.759 158.153 216.035C158.153 214.31 155.476 214.31 155.476 216.035" fill="#89C5CC"/>
<path fill-rule="evenodd" clip-rule="evenodd" d="M160.044 216.329C160.044 218.081 162.764 218.081 162.764 216.329C162.764 214.576 160.044 214.576 160.044 216.329" fill="#89C5CC"/>
<path fill-rule="evenodd" clip-rule="evenodd" d="M162.117 222.484C160.845 222.587 156.186 222.155 155.369 223.269C154.002 225.132 156.183 225.197 157.254 225.398C158.219 225.579 162.413 225.477 163.004 224.62C163.526 223.863 163.404 222.374 162.117 222.484" fill="#89C5CC"/>
<path fill-rule="evenodd" clip-rule="evenodd" d="M218.241 217.653C218.022 217.743 218.022 217.743 218.241 217.653ZM200.64 216.366C197.772 216.577 195.344 218.226 192.602 218.884C189.676 219.587 188.409 218.295 185.748 217.449C182.98 216.569 181.011 216.917 178.786 218.807C177.526 219.878 174.76 222.344 175.548 224.247C177.352 228.602 181.436 221.516 183.357 221.186C186.353 220.672 189.019 223.292 192.475 222.543C195.606 221.864 198.384 219.714 201.654 219.691C204.389 219.671 206.966 221.168 209.666 221.53C213.788 222.083 216.494 220.619 220.304 219.533C223.608 218.591 225.924 219.833 229.032 220.878C230.452 221.355 235.191 223.091 234.319 219.943C234.072 219.054 227.827 217.464 226.859 217.158C223.445 216.08 221.283 216.5 218.03 217.74C215.318 218.775 213.036 219.279 210.128 218.71C206.924 218.082 204.01 216.11 200.64 216.366" fill="#89C5CC"/>
</g>
<g opacity="0.5">
<path fill-rule="evenodd" clip-rule="evenodd" d="M332.575 72.0119C333.038 62.0554 333.674 52.1129 334.009 42.1504C334.176 37.2137 334.306 32.2765 334.432 27.3388C334.459 26.2393 334.488 25.1403 334.513 24.0408C334.594 20.3056 334.151 20 337.91 19.6685C354.679 18.1883 371.515 17.6977 388.304 16.3585C408.553 14.7433 428.907 13.6281 449.213 13.1282C458.236 12.9056 467.298 12.4447 476.323 12.7252C478.322 12.7874 482.247 12.2671 483.035 13.8215C483.375 14.4929 482.661 16.8036 482.571 17.5785C482.288 19.9991 482.024 22.428 481.861 24.8607C480.901 39.2081 481.473 53.9172 484.251 68.0471C477.734 64.3722 469.5 61.211 461.904 61.8384C454.16 62.4779 448.367 66.9523 442.168 71.0705C438.662 73.3998 437.481 74.0124 433.983 71.7559C430.968 69.8111 428.116 67.5876 425.272 65.4053C420.883 62.0373 416.741 58.3856 412.485 54.8548C404.66 48.3628 393.878 39.1223 383.07 41.8429C375.348 43.7868 368.218 48.0308 361.516 52.1843C351.558 58.355 342.545 65.9117 332.575 72.0119M466.779 8.30369C428.306 8.30369 390.121 12.0334 351.756 14.051C347.749 14.2615 343.756 14.5718 339.764 14.9571C337.103 15.214 330.596 14.1354 328.852 16.409C327.688 17.9258 328.688 18.1535 328.852 19.5947C329.058 21.4111 328.936 23.5632 328.883 25.4858C328.755 30.1183 328.62 34.7504 328.515 39.3834C328.118 56.8933 327.869 74.4 328.578 91.9053C328.733 95.7231 330.124 101.009 329.363 104.719C328.812 107.405 326.97 109.039 331.218 109.535C335.398 110.024 340.509 108.781 344.693 108.384C348.901 107.983 353.108 107.548 357.321 107.201C375.638 105.692 394.133 105.92 412.499 105.418C431.029 104.912 449.567 104.88 468.104 104.869C475.86 104.865 484.723 105.301 492.291 103.167C494.953 102.415 495.384 102.045 494.727 99.4036C494.603 98.9024 493.799 98.7173 493.563 97.8112C493.242 96.5782 493.407 95.0795 493.332 93.7959C493.087 89.6039 493.001 85.4045 492.804 81.2097C492.474 74.2011 491.266 67.3993 490.372 60.4612C489.341 52.4486 489.394 44.3132 489.373 36.2482C489.361 31.7747 489.476 27.3161 489.835 22.8551C490.066 19.994 491.475 15.7222 490.76 13.054C490.404 11.7255 489.822 10.6719 488.439 10.1001C487.563 9.7375 486.826 10.0213 485.96 9.92948C484.933 9.82051 484.292 9.67629 483.062 9.3976C477.789 8.2026 472.151 8.30369 466.779 8.30369" fill="#69A1AC"/>
<path fill-rule="evenodd" clip-rule="evenodd" d="M445.487 27.3524C445.484 30.1408 445.049 34.2553 446.335 36.8809C447.965 40.2113 450.005 39.1703 450.545 36.0406C450.855 34.2474 450.847 28.9407 450.271 27.3524C449.456 25.1043 445.487 23.5731 445.487 27.3524" fill="#89C5CC"/>
<path fill-rule="evenodd" clip-rule="evenodd" d="M450.166 28.4291C447.548 28.5214 439.924 27.893 438.153 29.9979C435.115 33.6079 440.404 34.2474 442.675 34.0452C445.303 33.8115 453.423 34.3818 455.183 32.2747C458.127 28.7495 452.224 28.354 450.166 28.4291" fill="#89C5CC"/>
<path fill-rule="evenodd" clip-rule="evenodd" d="M348.583 121.579C360.091 123.578 356.511 141.125 345.621 137.061C341.827 135.644 336.236 131.552 338.334 126.731C339.9 123.129 345.006 121.236 348.583 121.579M343.818 116.124C336.334 117.384 331.217 125.483 333.783 132.548C336.259 139.363 345.648 144.354 352.573 141.905C359.183 139.566 362.481 130.771 360.252 124.337C357.924 117.615 350.338 115.026 343.818 116.124" fill="#89C5CC"/>
<path fill-rule="evenodd" clip-rule="evenodd" d="M413.816 123.632C410.951 123.87 408.475 125.876 405.592 126.231C402.896 126.563 400.662 125.64 398.138 124.903C395.087 124.012 392.289 123.621 389.171 124.412C386.789 125.017 384.439 126.638 381.964 126.834C377.094 127.218 371.434 121.662 367.632 127.947C365.809 130.959 368.456 132.9 371.182 131.495C374.024 130.03 372.629 129.506 376.155 130.371C379.096 131.092 381.474 131.484 384.42 130.473C387.089 129.558 389.432 127.883 392.333 127.694C395.174 127.51 397.645 128.804 400.36 129.362C403.699 130.049 406.653 129.529 409.817 128.483C412.826 127.487 414.027 126.943 417.064 127.831C418.986 128.393 423.187 130.18 425.058 128.74C428.294 126.251 423.962 125.887 422.256 125.533C419.509 124.964 416.667 123.398 413.816 123.632" fill="#89C5CC"/>
<path fill-rule="evenodd" clip-rule="evenodd" d="M479.384 121.959C479.407 121.977 479.43 121.995 479.452 122.012C479.43 121.995 479.406 121.977 479.384 121.959M476.571 121.371C480.754 121.64 485.277 129.26 479.735 129.531C475.834 129.721 471.469 123.049 476.571 121.371M475.984 115.136C462.758 118.829 468.804 137.477 481.562 135.323C487.357 134.344 489.321 127.631 487.405 122.661C486.582 120.527 484.978 118.727 483.061 117.499C481.647 116.592 477.601 114.686 475.984 115.136" fill="#89C5CC"/>
<path fill-rule="evenodd" clip-rule="evenodd" d="M414.276 154.065C425.915 153.666 437.555 153.266 449.206 153.158C455.52 153.1 461.8 153.21 468.105 153.572C470.901 153.732 473.696 153.887 476.494 154.005C476.977 154.026 477.644 153.993 478.38 153.957C480.112 153.872 482.227 153.768 483.222 154.294C488.788 157.238 477.448 157.561 476.07 157.538C472.983 157.486 469.899 157.334 466.815 157.181C464.12 157.048 461.425 156.915 458.727 156.848C441.42 156.423 424.007 157.201 406.671 157.975C402.697 158.152 398.727 158.33 394.763 158.492C390.554 158.665 386.347 158.777 382.139 158.889C376.125 159.048 370.111 159.208 364.097 159.546C361.8 159.675 359.504 159.812 357.208 159.948C353.919 160.144 350.63 160.34 347.339 160.513C344.763 160.649 342.186 160.781 339.606 160.846C339.142 160.857 338.537 160.922 337.876 160.992L337.876 160.992H337.876C336.277 161.163 334.353 161.368 333.313 160.943C332.063 160.432 331.051 159.717 331.739 158.202C332.32 156.92 334.433 157.074 335.974 157.186C336.395 157.217 336.773 157.244 337.065 157.238C341.989 157.143 346.902 156.866 351.817 156.566C353.615 156.455 355.412 156.342 357.209 156.229L357.21 156.229L357.21 156.229L357.21 156.229L357.21 156.229C366.567 155.641 375.915 155.053 385.295 154.893C394.959 154.728 404.617 154.397 414.276 154.065ZM475.065 230.668L478.411 230.628C480.139 230.778 480.912 232.592 479.802 233.986C478.953 235.054 475.684 235.102 473.553 235.134C472.962 235.142 472.459 235.15 472.119 235.177C466.556 235.624 461.004 235.825 455.424 235.879C443.674 235.991 431.968 236.494 420.237 237.163C408.229 237.848 396.211 238.105 384.192 238.363H384.191C375.349 238.552 366.506 238.742 357.667 239.101C352.605 239.307 347.542 239.461 342.478 239.594C341.934 239.608 341.21 239.686 340.391 239.774C337.192 240.12 332.544 240.622 331.491 238.081C330.556 235.827 331.855 234.789 333.755 234.317C333.455 232.982 333.511 231.106 333.542 230.031C333.552 229.708 333.559 229.457 333.554 229.316C333.507 227.968 333.473 226.62 333.44 225.272C333.402 223.745 333.365 222.218 333.306 220.691C333.252 219.306 333.203 217.919 333.153 216.532C332.957 211.059 332.761 205.573 332.339 200.123C332.145 197.607 331.837 195.121 331.529 192.639C331.038 188.676 330.547 184.724 330.525 180.678C330.521 179.95 330.484 179.04 330.443 178.013C330.233 172.761 329.901 164.457 333.161 161.928C338.91 158.574 337.773 168.256 337.266 172.578C337.183 173.291 337.116 173.858 337.1 174.197C336.77 181.383 337.218 188.252 337.941 195.392C338.43 200.214 338.144 205.02 337.859 209.834C337.757 211.553 337.655 213.274 337.588 214.996C337.555 215.848 337.525 216.7 337.496 217.552C337.405 220.172 337.315 222.791 337.118 225.409C337.096 225.692 337.089 226.235 337.08 226.929C337.054 228.887 337.013 232.044 336.594 233.961C337.486 233.922 338.351 233.932 339.067 233.94C339.522 233.945 339.917 233.949 340.219 233.94C341.591 233.898 342.964 233.858 344.336 233.818C348.39 233.699 352.444 233.58 356.497 233.428C366.065 233.068 375.636 232.948 385.207 232.828C396.511 232.686 407.816 232.544 419.115 232.007C437.737 231.122 456.423 230.895 475.065 230.668ZM478.519 160.42C478.509 172.729 479.461 184.7 480.573 196.96C481.261 204.543 481.812 212.155 482.251 219.757C482.271 220.109 482.268 220.696 482.264 221.432V221.433C482.242 225.637 482.194 234.695 486.349 232.528C489.486 230.892 488.28 221.405 487.613 216.155L487.613 216.155C487.467 215.004 487.346 214.056 487.303 213.44C487.212 212.127 487.122 210.815 487.032 209.502C486.614 203.408 486.197 197.318 485.647 191.231L485.531 189.947C484.895 182.917 484.259 175.891 484.146 168.827C484.137 168.243 484.193 167.43 484.256 166.511C484.44 163.851 484.685 160.31 483.58 158.898C482.026 156.911 478.522 157.498 478.519 160.42Z" fill="#69A1AC"/>
<path fill-rule="evenodd" clip-rule="evenodd" d="M414.808 190.595C429.675 183.869 444.714 177.065 460.174 172.22C461.291 171.87 461.998 173.022 461.744 173.989C461.483 174.985 459.064 175.835 457.46 176.399C456.981 176.568 456.574 176.711 456.319 176.824C454.16 177.789 451.995 178.741 449.83 179.694C447.613 180.669 445.396 181.645 443.185 182.633C438.587 184.687 433.985 186.733 429.383 188.778C424.454 190.968 419.526 193.158 414.603 195.36C414.416 195.443 414.23 195.527 414.043 195.61C420.737 197.989 427.393 200.474 434.02 203.035C436.285 203.909 438.542 204.803 440.799 205.696C442.076 206.201 443.353 206.706 444.631 207.208C445.047 207.371 445.772 207.593 446.643 207.859C449.481 208.725 453.871 210.066 454.196 211.42C454.724 213.626 448.663 211.492 446.376 210.687C446.072 210.58 445.835 210.497 445.689 210.45C442.315 209.371 438.98 208.17 435.648 206.969L435.187 206.802C432.545 205.851 429.908 204.889 427.271 203.927C422.119 202.049 416.968 200.17 411.789 198.368C411.056 198.113 410.323 197.859 409.59 197.606C401.278 201.34 392.982 205.109 384.714 208.938C380.28 210.992 375.871 213.093 371.473 215.222C370.513 215.687 369.325 216.405 368.034 217.186C364.939 219.056 361.255 221.283 358.721 221.227C357.362 221.197 356.446 220.906 356.304 219.259C356.158 217.559 358.339 216.668 359.907 216.027C360.282 215.873 360.622 215.734 360.887 215.602C365.587 213.251 370.317 210.96 375.059 208.698C384.479 204.205 393.987 199.891 403.529 195.663C403.584 195.639 403.639 195.615 403.693 195.59C398.402 193.8 393.095 192.051 387.777 190.34C387.246 190.169 386.157 189.868 384.726 189.471C377.965 187.599 363.563 183.61 364.204 181.28C364.939 178.615 378.442 183.486 384.42 185.643C385.54 186.047 386.396 186.356 386.854 186.502C394.001 188.779 401.128 191.121 408.218 193.57C410.411 192.585 412.608 191.591 414.808 190.595Z" fill="#89C5CC"/>
<path fill-rule="evenodd" clip-rule="evenodd" d="M351.108 249.133C355.459 249.896 358.529 254.071 358.052 258.443C357.406 264.349 351.519 267.057 346.08 266.286C339.909 265.411 338.611 260.194 341.601 255.176C342.263 254.065 343.024 252.735 344.228 252.15C345.055 251.748 346.109 252.104 346.775 251.779C349.111 250.643 347.706 248.832 351.108 249.133M349.126 245.275C343.816 245.953 334.005 252.098 334.501 258.246C334.932 258.959 335.58 259.25 336.445 259.121C336.237 260.453 336.305 261.77 336.649 263.074C337.153 264.766 338.16 266.153 339.508 267.255C342.285 269.524 346.081 270.081 349.539 269.683C355.996 268.941 361.084 264.528 361.447 257.812C361.801 251.257 356.079 244.397 349.126 245.275" fill="#89C5CC"/>
<path fill-rule="evenodd" clip-rule="evenodd" d="M374.846 253.275C372.463 254.537 368.694 256.477 367.297 258.875C365.821 261.408 367.349 264.179 370.459 262.981C372.928 262.03 374.498 259.008 377.132 258.039C379.456 257.184 380.392 257.62 382.849 258.471C385.38 259.348 387.592 260.196 390.328 259.981C393.767 259.71 396.745 257.716 400.111 257.263C402.945 256.881 405.282 257.983 407.996 258.422C411.145 258.931 413.204 257.739 416.15 257.118C418.154 256.696 421.686 258.414 423.148 257.771C426.434 256.326 422.957 254.56 421.138 253.976C418.073 252.993 416.187 253.86 413.272 254.676C410.107 255.561 408.74 254.895 405.714 254.083C399.593 252.438 394.864 256.415 389.062 255.692C383.691 255.022 380.476 250.293 374.846 253.275" fill="#89C5CC"/>
<path fill-rule="evenodd" clip-rule="evenodd" d="M474.935 250.336C480.827 255.86 474.208 263.719 467.712 259.305C465.426 257.751 465.389 255.255 467.168 253.022C468.796 250.98 472.371 250.184 474.935 250.336V250.336ZM472.751 245.873C467.247 246.943 462.055 249.469 461.556 255.822C461.07 262.021 467.428 264.899 472.769 264.493C484.761 263.58 483.894 243.719 472.751 245.873V245.873Z" fill="#89C5CC"/>
</g>
<path opacity="0.5" fill-rule="evenodd" clip-rule="evenodd" d="M624.43 80.0651C619.539 80.136 607.462 81.4716 605.666 85.8153C604.303 89.1125 608.352 88.3886 610.522 87.1888C613.457 85.5664 616.031 84.5955 619.669 84.1018C633.524 82.2202 646.838 88.9676 660.56 89.8209C665.759 90.1442 672.032 90.3548 676.995 89.0909C680.529 88.1909 680.991 86.2285 676.957 85.9295C673.53 85.6757 669.738 86.4759 666.224 86.4531C651.685 86.3598 638.761 79.8598 624.43 80.0651" fill="#C1DEE2"/>
<g opacity="0.5">
<path fill-rule="evenodd" clip-rule="evenodd" d="M140.509 287.362C132.085 287.456 123.665 287.767 115.257 288.299C107.262 288.806 98.5867 288.421 90.7216 289.971C88.4883 290.411 85.4714 292.446 88.441 294.685C90.5283 296.259 98.1648 294.449 100.657 294.296C109.836 293.731 119.02 293.056 128.212 292.731C136.914 292.423 145.615 292.315 154.322 292.228C155.651 292.215 157.857 291.789 159.181 292.175C161.083 292.729 160.632 292.88 160.774 295.294C161.032 299.668 160.961 304.058 160.874 308.436C160.79 312.673 160.633 316.909 160.649 321.148C160.659 324.172 159.693 330.181 161.21 332.808C163.394 336.588 165.66 332.482 165.823 329.97C166.136 325.165 165.996 320.302 165.997 315.491C165.998 310.976 166.031 306.46 165.872 301.947C165.756 298.687 166.222 292.996 164.466 290.032C162.677 287.013 158.371 287.664 155.228 287.52C150.326 287.295 145.415 287.311 140.509 287.362" fill="#89C5CC"/>
<path fill-rule="evenodd" clip-rule="evenodd" d="M86.9096 292.81C86.9189 301.295 85.9374 309.722 85.6624 318.197C85.5363 322.093 85.2804 326.371 86.2661 330.196C87.2611 334.058 90.4212 334.895 90.7851 330.583C91.5223 321.853 91.3415 312.8 91.9155 304C92.1181 300.892 93.4367 295.198 92.2057 292.289C91.1217 289.726 86.905 289.234 86.9096 292.81" fill="#89C5CC"/>
<path fill-rule="evenodd" clip-rule="evenodd" d="M165.906 330.208C151.276 332.144 135.981 331.438 121.247 331.743C114.178 331.889 107.111 331.898 100.041 331.972C97.5731 331.997 91.3071 331.059 89.1725 332.446C85.7745 334.654 89.4613 336.358 91.7109 336.407C105.663 336.712 119.77 336.071 133.72 335.613C139.987 335.407 146.275 335.307 152.526 334.774C156.374 334.446 160.579 334.128 164.316 333.094C165.112 332.874 166.846 332.919 167.024 331.833C167.134 331.162 166.935 330.066 165.906 330.208" fill="#89C5CC"/>
<path fill-rule="evenodd" clip-rule="evenodd" d="M105.07 342.54C101.004 342.564 88.7513 340.675 87.0673 344.64C84.8224 349.928 93.58 348.694 95.9353 348.633C101.285 348.496 106.63 348.481 111.981 348.484C117.231 348.486 122.481 348.452 127.73 348.327C129.251 348.291 132.791 348.922 133.666 347.091C134.331 345.699 133.805 344.601 132.579 343.864C129.628 342.091 121.963 343.119 118.509 342.96C114.036 342.754 109.548 342.54 105.07 342.54" fill="#89C5CC"/>
<path fill-rule="evenodd" clip-rule="evenodd" d="M154.537 343.519C152.213 343.657 147.513 342.699 145.431 343.763C143.065 344.972 143.899 346.864 145.941 347.696C147.356 348.272 153.159 347.97 154.537 347.303C155.973 346.607 157.597 343.331 154.537 343.519" fill="#89C5CC"/>
<path fill-rule="evenodd" clip-rule="evenodd" d="M180.013 293.643C177.531 294.324 178.284 308.414 178.22 310.647C178.045 316.767 177.357 324.464 179.39 330.358C180.687 334.115 183.178 333.605 182.753 329.65C182.381 326.178 181.741 322.746 181.464 319.252C180.839 311.345 179.987 302.911 180.578 294.997C180.83 295.457 183.184 299.722 183.738 299.404C183.571 299.503 181.023 293.377 180.013 293.643" fill="#89C5CC"/>
<path fill-rule="evenodd" clip-rule="evenodd" d="M207.93 288.453C202.907 288.528 197.885 288.617 192.864 288.756C188.871 288.867 182.598 288.211 178.937 289.891C174.577 291.89 176.645 296.345 180.74 296.439C184.363 296.523 188.226 295.706 191.881 295.581C201.754 295.243 211.645 295.171 221.522 295.086C230.456 295.009 239.769 295.962 248.624 294.62C249.937 306.283 246.385 317.995 247.593 329.792C247.78 331.623 247.696 334.21 250.028 334.627C252.971 335.154 253.092 332.239 253.203 330.152C253.522 324.193 253.349 318.229 253.786 312.262C254.19 306.732 254.986 301.081 254.313 295.542C253.486 288.727 250.22 289.273 244.447 288.99C232.254 288.392 220.137 288.274 207.93 288.453" fill="#89C5CC"/>
<path fill-rule="evenodd" clip-rule="evenodd" d="M191.098 329.866C188.538 329.931 184.288 329.142 182.648 331.596C180.942 334.15 182.966 336.377 185.447 336.901C188.384 337.521 192.213 336.671 195.261 336.662C198.435 336.652 201.61 336.688 204.784 336.7C218.392 336.753 232.058 336.959 245.657 336.397C247.556 336.318 252.946 336.955 254.26 335.133C255.427 333.518 254.611 332.069 253.074 331.246C250.554 329.895 245.378 330.409 242.575 330.302C239.113 330.17 235.646 330.127 232.183 330.073C218.511 329.862 204.768 329.528 191.098 329.866" fill="#89C5CC"/>
<path fill-rule="evenodd" clip-rule="evenodd" d="M202.609 341.67C197.517 341.757 192.083 341.534 187.041 342.306C182.608 342.985 182.062 347.271 186.834 347.772C191.22 348.233 196.537 347.372 200.944 347.089C202.509 346.988 204.329 347.131 205.079 345.401C205.862 343.593 204.365 341.859 202.609 341.67" fill="#89C5CC"/>
<path fill-rule="evenodd" clip-rule="evenodd" d="M241.108 342.12C238.39 342.188 230.451 341.019 229.105 344.124C226.863 349.292 237.611 347.329 239.673 347.253C242.272 347.157 252.4 348.675 252.402 344.538C252.404 340.481 243.597 342.059 241.108 342.12" fill="#89C5CC"/>
<path fill-rule="evenodd" clip-rule="evenodd" d="M86.4701 367.804C86.4766 377.207 85.8915 386.697 86.7492 396.076C87.1039 399.955 87.0431 407.386 89.2899 410.674C90.8848 413.008 93.0968 412.845 93.968 410.042C94.5503 408.168 93.6189 404.421 93.515 402.416C93.4149 400.493 93.298 398.57 93.209 396.646C92.9804 391.688 92.9985 386.739 93.0667 381.779C93.1251 377.524 94.1493 371.895 93.1835 367.804C92.2831 363.991 86.4701 363.099 86.4701 367.804" fill="#69A1AC"/>
<path fill-rule="evenodd" clip-rule="evenodd" d="M180.967 359.532C164.654 359.941 148.304 359.576 132.006 360.383C123.968 360.781 115.961 361.656 107.963 362.527C104.034 362.956 100.107 363.398 96.1848 363.881C95.0012 364.027 85.1656 364.408 88.865 368.148C90.4803 369.782 95.6206 368.076 97.6546 367.835C101.593 367.37 105.539 366.965 109.482 366.548C116.987 365.754 124.5 365.002 132.037 364.585C149.786 363.601 167.609 363.896 185.376 363.241C190.182 363.064 194.973 362.937 199.781 363.126C201.044 363.176 210.321 363.647 206.293 360.221C204.388 358.6 197.207 359.436 194.827 359.387C190.207 359.292 185.585 359.416 180.967 359.532" fill="#69A1AC"/>
<path fill-rule="evenodd" clip-rule="evenodd" d="M203.205 375.373C203.125 371.029 203.044 366.685 202.846 362.344C202.638 357.773 208.865 357.081 210.711 360.781C212.041 363.445 211.807 367.977 211.606 371.862C211.526 373.427 211.45 374.888 211.485 376.078C211.564 378.806 211.765 381.628 211.968 384.486C212.48 391.68 213.009 399.111 211.664 405.902C211.01 409.202 208.227 410.936 206.374 409.138C206.371 409.141 206.369 409.145 206.366 409.149C205.669 410.176 203.5 410.174 201.902 410.172C201.462 410.172 201.065 410.171 200.755 410.192C196.378 410.49 192.082 410.992 187.743 411.642C179.099 412.938 170.53 413.734 161.793 413.95C155.864 414.097 149.927 414.146 143.989 414.196C132.617 414.29 121.24 414.384 109.904 415.162C106.082 415.425 102.319 415.875 98.5595 416.594C98.2396 416.655 97.8842 416.734 97.506 416.819C94.7109 417.44 90.6645 418.34 90.388 414.434C90.0594 409.798 100.107 409.19 105.278 408.878C106.068 408.83 106.744 408.789 107.251 408.742C122.952 407.282 138.899 407.508 154.666 407.732C155.43 407.742 156.194 407.753 156.957 407.764C158.187 407.781 159.417 407.801 160.647 407.821C167.398 407.933 174.141 408.044 180.889 407.631C183.96 407.443 187.072 407.346 190.189 407.25C195.162 407.096 200.149 406.941 205.013 406.414C204.279 403.57 204.151 400.214 204.03 397.051C203.983 395.819 203.937 394.617 203.857 393.485C203.43 387.456 203.317 381.415 203.205 375.373Z" fill="#69A1AC"/>
<path fill-rule="evenodd" clip-rule="evenodd" d="M216.408 365.693C214.204 365.992 212.366 367.879 213.35 370.271C214.589 373.283 218.28 372.106 220.718 371.915C228.468 371.308 236.56 372.521 244.217 371.606C246.308 371.356 249.341 370.217 247.464 367.407C246.053 365.296 240.911 365.666 238.725 365.464C231.25 364.772 223.873 364.957 216.408 365.693" fill="#C1DEE2"/>
<path fill-rule="evenodd" clip-rule="evenodd" d="M229.488 378.834C226.483 379.036 219.486 378.877 218.219 382.297C215.947 388.432 224.846 386.27 227.556 385.921C230.703 385.516 238.123 386.601 239.799 383.549C242.796 378.091 232.124 378.652 229.488 378.834" fill="#C1DEE2"/>
<path fill-rule="evenodd" clip-rule="evenodd" d="M221.759 392.298C220.333 393.724 220.331 396.271 221.759 397.698C223.507 399.445 227.317 399.082 229.614 399.209C232.818 399.388 242.021 401.083 243.612 397.31C245.759 392.219 237.425 392.326 234.684 392.037C231.516 391.704 224.385 389.671 221.759 392.298" fill="#C1DEE2"/>
<path fill-rule="evenodd" clip-rule="evenodd" d="M109.437 305.159C109.437 310.632 117.985 310.632 117.985 305.159C117.985 299.715 109.437 299.632 109.437 305.159" fill="#89C5CC"/>
<path fill-rule="evenodd" clip-rule="evenodd" d="M125.651 305.221C125.651 311.478 135.387 311.465 135.387 305.221C135.387 298.986 125.651 298.922 125.651 305.221" fill="#89C5CC"/>
<path fill-rule="evenodd" clip-rule="evenodd" d="M115.842 313.54C111.11 314.847 115.47 318.858 117.667 319.774C121.16 321.23 125.927 322.304 129.42 320.12C130.81 319.251 131.938 318.097 130.92 316.411C129.834 314.615 128.349 315.414 126.696 315.579C124.603 315.79 122.911 315.757 120.89 315.086C119.381 314.585 117.488 313.087 115.842 313.54" fill="#89C5CC"/>
<path fill-rule="evenodd" clip-rule="evenodd" d="M201.69 305.505C201.69 309.207 207.438 309.207 207.438 305.505C207.438 301.803 201.69 301.803 201.69 305.505" fill="#89C5CC"/>
<path fill-rule="evenodd" clip-rule="evenodd" d="M214.402 306.062C214.402 310.175 220.788 310.176 220.788 306.062C220.788 301.949 214.402 301.95 214.402 306.062" fill="#89C5CC"/>
<path fill-rule="evenodd" clip-rule="evenodd" d="M213.929 314.988C210.575 315.421 200.873 316.404 200.33 320.539C199.493 326.918 210.123 321.755 212.549 321.254C215.64 320.616 218.399 320.783 221.484 320.907C223.178 320.974 225.431 321.249 225.253 318.669C224.962 314.432 216.861 314.613 213.929 314.988" fill="#89C5CC"/>
<path fill-rule="evenodd" clip-rule="evenodd" d="M129.592 373.815C127.16 374.463 123.98 378.666 125.653 381.239C128.395 385.458 129.605 378.98 130.753 378.356C132.842 377.222 134.537 381.368 136.72 379.193C140.164 375.761 131.76 373.234 129.592 373.815" fill="#69A1AC"/>
<path fill-rule="evenodd" clip-rule="evenodd" d="M157.45 370.696C154.567 370.722 148.48 374.805 148.049 377.818C147.793 379.61 148.98 381.33 150.911 381.354C153.54 381.386 154.375 377.968 156.654 377.253C159.112 376.482 158.747 378.258 160.87 379.178C162.424 379.852 164.367 379.57 164.906 377.66C165.925 374.057 160.413 370.639 157.45 370.696" fill="#69A1AC"/>
<path fill-rule="evenodd" clip-rule="evenodd" d="M135.38 387.954C130.768 390.656 138.356 396.449 140.987 397.174C144.958 398.267 152.951 396.226 153.892 391.375C154.267 389.444 153.059 387.695 150.928 388.041C149.174 388.326 148.049 390.527 146.424 391.315C144.23 392.378 142.28 392.306 140.416 390.705C138.898 389.4 138.085 386.376 135.38 387.954" fill="#69A1AC"/>
<path fill-rule="evenodd" clip-rule="evenodd" d="M138.722 427.885C134.602 428.764 130.413 428.174 126.273 429.001C122.051 429.843 119.528 431.438 115.606 429.831C115.421 429.753 115.237 429.676 115.053 429.598C112.017 428.29 108.835 427.903 105.658 429.987C103.777 431.22 98.0684 435.486 98.7564 438.089C100.247 443.732 106.671 434.883 108.309 434.021C111.433 432.376 113.574 434.477 116.79 435.07C120.642 435.78 123.741 433.745 127.37 432.934C131.613 431.986 136.387 431.656 140.705 431.148C142.41 430.948 148.871 432.297 149.454 430.174C150.456 426.528 140.342 427.542 138.722 427.885" fill="#C1DEE2"/>
<path fill-rule="evenodd" clip-rule="evenodd" d="M168.449 439.25C168.719 439.454 168.503 439.29 168.449 439.25ZM179.989 427.665C183.516 427.307 194.802 424.787 197.119 428.432C198.629 430.806 196.233 439.569 193.949 440.702C192.122 441.607 187.869 440.606 185.865 440.535C182.136 440.404 178.4 440.346 174.675 440.113C173.426 440.035 169.407 440.265 168.428 439.159C167.272 437.854 167.323 430.895 167.051 429.169C170.294 430.219 176.598 428.009 179.989 427.665M187.521 424.091C183.004 424.287 178.487 424.627 174.003 425.232C171.504 425.57 168.971 426.468 166.663 426.894C165.919 427.031 164.711 426.65 163.799 427.091C161.132 428.379 163.467 437.089 164.11 439.415C165.098 442.99 167.583 443.569 171.066 443.905C175.653 444.35 180.334 444.21 184.936 444.154C189.371 444.099 195.352 445.082 197.841 440.632C199.45 437.754 201.175 431.053 199.8 427.846C197.991 423.626 191.236 423.935 187.521 424.091" fill="#C1DEE2"/>
<path fill-rule="evenodd" clip-rule="evenodd" d="M238.111 441.644C237.869 441.954 237.869 441.954 238.111 441.644ZM239.101 440.45C239.026 440.564 238.679 440.93 239.101 440.45ZM228.327 440.123C230.319 439.748 232.311 439.377 234.304 439.013C232.417 441.656 230.429 440.564 227.203 440.334C227.578 440.263 227.953 440.193 228.327 440.123M218.827 439.187C219.331 439.018 219.836 438.85 220.341 438.681C220.325 439.065 220.408 439.425 220.588 439.76C219.724 439.667 218.861 439.566 217.998 439.46C218.274 439.369 218.551 439.278 218.827 439.187M214.424 435.936C214.396 435.243 215.438 435.719 216.036 435.672C214.884 436.686 214.346 436.775 214.424 435.936M230.169 428.072C230.321 427.878 230.522 427.888 230.772 428.101C230.499 428.193 229.449 428.638 230.169 428.072M240.38 426.871C240.407 426.871 240.974 427.636 240.38 426.871ZM240.094 426.62C240.242 426.734 240.242 426.734 240.094 426.62ZM238.819 426.472C240.907 426.824 240.749 429.274 238.819 426.472ZM214.291 426.304C213.867 426.657 214.012 426.315 214.291 426.304ZM222.275 421.088C218.731 421.294 212.224 421.087 209.264 422.975C205.401 425.44 207.434 433.926 207.78 437.646C208.29 443.144 210.878 444.71 216.056 445.287C222.236 445.976 228.585 446.104 234.797 445.941C240.391 445.794 243.577 443.87 244.602 437.98C244.916 436.178 245.712 433.39 245.687 431.663C245.67 430.466 245.073 429.92 244.848 428.902C243.563 423.105 241.414 422.418 235.473 422.165C231.1 421.979 226.566 420.863 222.275 421.088" fill="#89C5CC"/>
</g>
<g opacity="0.5">
<path fill-rule="evenodd" clip-rule="evenodd" d="M410.032 287.913C419.044 288.105 429.268 293.093 427.843 303.659C426.799 311.399 420.098 317.683 412.336 318.224C403.994 318.806 395.174 312.404 394.041 303.91C392.766 294.357 401.22 287.722 410.032 287.913M405.613 283.612C401.959 284.157 398.468 286.076 395.251 287.794C394.023 288.451 387.798 292.452 392.681 293.446C380.916 312.419 408.603 330.043 424.17 317.712C431.161 312.174 434.841 301.675 430.322 293.457C425.649 284.957 414.566 282.267 405.613 283.612" fill="#89C5CC"/>
<path fill-rule="evenodd" clip-rule="evenodd" d="M403.459 299.762C403.459 303.306 408.959 303.306 408.959 299.762C408.959 296.218 403.459 296.218 403.459 299.762" fill="#89C5CC"/>
<path fill-rule="evenodd" clip-rule="evenodd" d="M413.657 300.329C413.657 304.171 419.621 304.171 419.621 300.329C419.621 296.488 413.657 296.488 413.657 300.329" fill="#89C5CC"/>
<path fill-rule="evenodd" clip-rule="evenodd" d="M406.775 307.927C405.972 310.842 415.123 312.337 415.428 308.964C415.573 307.352 407.333 305.894 406.775 307.927" fill="#89C5CC"/>
<path fill-rule="evenodd" clip-rule="evenodd" d="M433.599 306.126C444.129 304.863 454.985 305.446 465.565 305.749C468.213 305.826 470.861 305.9 473.509 305.944C475.192 305.972 478.828 306.78 480.298 305.992C486.315 302.766 474.511 301.205 472.84 301.057C462.316 300.191 446.075 299.882 435.52 300.291C432.398 300.412 431.723 306.351 433.599 306.126" fill="#89C5CC"/>
<path fill-rule="evenodd" clip-rule="evenodd" d="M480.98 358.469C481.07 347.437 481.466 336.33 482.314 325.33C482.659 320.847 483.074 316.37 483.417 311.886C483.579 309.775 484.329 306.817 483.088 304.964C481.809 303.055 479.003 302.658 477.312 304.35C475.288 306.97 475.876 311.367 475.624 314.537C475.237 319.41 474.77 324.28 474.537 329.164C474.088 338.616 473.983 348.233 474.743 357.673C475.101 362.127 475.879 366.473 476.914 370.817C477.385 372.795 481.132 381.603 480.345 382.818C479.124 384.702 470.099 383.99 468.141 384.042C463.117 384.177 458.092 384.265 453.067 384.361C448.765 384.443 444.463 384.502 440.16 384.54C438.452 384.555 428.414 384.251 430.641 386.784C405.741 388.519 380.366 385.622 355.618 384.629C354.368 384.578 352.323 384.223 350.435 384.121C350.209 383.209 350.023 382.395 349.977 381.828C349.652 377.851 349.567 373.86 349.214 369.884C348.569 362.608 347.318 355.407 346.574 348.144C345.831 340.889 345.906 333.612 345.473 326.339C345.399 325.093 345.224 314.885 342.648 312.404C343.869 312.867 345.839 312.928 346.973 312.836C356.153 312.096 365.266 310.5 374.368 309.131C376.972 308.74 382.881 309.017 385.041 307.716C386.91 306.589 387.65 302.638 384.398 302.958C375.322 303.93 366.296 305.439 357.292 306.924C354.883 307.321 352.481 307.746 350.079 308.18C348.475 308.47 344.241 308.448 342.997 309.415C341.486 310.589 341.326 311.388 341.838 311.919C341.126 311.723 340.273 312.031 339.248 313.056C337.31 315.578 339.132 321.789 339.363 324.746C339.64 328.293 339.777 331.845 339.938 335.399C340.25 342.275 340.97 349.056 342.076 355.85C343.316 363.46 344.371 371.102 345.614 378.71C345.937 380.691 346.359 382.623 346.898 384.537C343.549 386.249 345.826 388.973 348.481 389.456C348.5 389.46 348.52 389.462 348.539 389.466C349.367 391.485 350.525 393.355 351.429 390.65C351.498 390.442 351.531 390.187 351.539 389.9C358.398 390.676 365.938 390.194 372.691 390.47C387.319 391.068 402.037 391.965 416.68 391.51C422.477 391.33 428.291 390.815 434.039 390.042C437.407 389.589 440.788 389.048 444.102 388.297C444.339 388.243 444.7 388.187 445.117 388.118C445.185 388.116 445.254 388.114 445.318 388.114C450.393 388.037 455.463 387.901 460.533 387.69C464.789 387.513 469.064 387.422 473.306 387.021C475.941 386.772 481.51 386.818 483.127 384.168C484.598 381.759 482.139 375.552 481.79 372.846C481.176 368.08 480.941 363.27 480.98 358.469" fill="#C1DEE2"/>
<path fill-rule="evenodd" clip-rule="evenodd" d="M429.556 326.614C425.501 326.961 421.752 328.865 417.66 328.889C414.225 328.908 410.844 327.882 407.39 328.034C403.339 328.21 401.11 330.83 397.562 331.707C394.737 332.404 392.957 330.241 390.472 329.285C387.335 328.077 385.017 328.701 382.328 330.528C380.352 331.87 375.744 334.883 375.78 337.599C375.886 345.825 385.483 334.462 387.417 334.324C389.988 334.141 392.86 337.071 395.595 337.238C399.211 337.459 401.529 335.128 404.859 334.279C408.226 333.42 411.866 334.472 415.242 334.799C419.093 335.171 422.464 334.313 426.19 333.394C429.801 332.503 432.878 332.55 436.547 333.298C439.023 333.803 445.193 336.739 446.276 332.964C447.751 327.823 432.39 326.373 429.556 326.614" fill="#89C5CC"/>
<path fill-rule="evenodd" clip-rule="evenodd" d="M430.79 342.302C422.482 343.109 414.123 343.816 405.777 344.042C402.162 344.141 388.266 342.591 389.498 347.185C390.555 351.123 409.465 348.643 413.317 348.343C417.569 348.013 421.815 347.551 426.046 347.016C427.545 346.826 431.166 347.022 432.225 345.765C433.233 344.565 432.736 342.108 430.79 342.302" fill="#89C5CC"/>
<path fill-rule="evenodd" clip-rule="evenodd" d="M373.475 363.221C373.286 363.301 373.286 363.301 373.475 363.221ZM375.228 363.197C377.299 363.132 376.855 362.04 378.921 362.609C379.874 362.871 379.972 362.482 380.711 363.393C382.152 365.17 380.795 369.039 379.374 370.471C374.113 375.773 367.799 363.433 375.228 363.197M375.228 357.995C360.825 358.479 366.851 380.728 379.387 376.186C384.564 374.311 387.818 365.861 384.773 361.112C383.292 358.802 381.403 358.391 378.921 358.231C378.345 358.194 377.62 359.031 377.261 358.993C376.406 358.903 376.486 357.948 375.228 357.995" fill="#89C5CC"/>
<path fill-rule="evenodd" clip-rule="evenodd" d="M409.671 363.983C409.414 363.904 414.218 365.301 413.693 364.754C414.815 365.921 413.306 368.68 412.037 369.161C408.964 370.328 407.24 365.549 409.671 363.983M411.803 357.95C407.293 358.589 403.813 360.468 403.196 365.482C402.627 370.111 405.755 374.799 410.688 374.889C421.442 375.086 421.769 356.56 411.803 357.95" fill="#89C5CC"/>
<path fill-rule="evenodd" clip-rule="evenodd" d="M460.892 364.186C461.522 372.406 452.999 364.882 460.892 364.186ZM457.234 355.392C456.489 356.666 457.125 358.018 458.25 358.759C448.195 360.884 450.473 376.013 460.704 373.778C465.906 372.641 466.863 367.171 466.088 362.653C465.719 360.505 460.366 350.038 457.234 355.392" fill="#89C5CC"/>
</g>
<path opacity="0.5" fill-rule="evenodd" clip-rule="evenodd" d="M488.78 349.669C485.451 350.113 477.58 352.874 477.649 355.838C477.756 360.466 484.445 355.411 485.933 354.732C493.926 351.079 504.278 355.812 512.601 356.819C516.417 357.28 523.882 358.134 527.252 356.213C533.246 352.799 519.384 353.654 517.618 353.517C508.022 352.773 498.476 348.368 488.78 349.669" fill="#C1DEE2"/>
<g opacity="0.5">
<path fill-rule="evenodd" clip-rule="evenodd" d="M622.586 324.268C622.583 329.946 622.296 335.742 623.343 341.352C623.66 343.051 623.91 346.304 625.701 347.185C627.501 348.07 629.246 347.076 629.693 345.231C630.215 343.084 629.071 339.872 628.955 337.619C628.796 334.54 628.785 331.458 628.784 328.376C628.783 326.15 629.515 322.569 626.887 321.424C624.934 320.572 622.586 322.156 622.586 324.268" fill="#C1DEE2"/>
<path fill-rule="evenodd" clip-rule="evenodd" d="M712.353 315.287C693.541 317.176 674.457 317.568 655.576 318.553C646.849 319.008 636.301 318.427 628.079 321.805C626.552 322.433 621.084 325.925 625.523 327.347C626.907 327.79 628.313 326.299 629.449 325.8C631.341 324.969 633.532 324.712 635.55 324.387C652.706 321.632 670.651 322.112 687.984 320.824C692.425 320.494 696.869 320.155 701.301 319.719C704.467 319.407 711.122 317.125 714.044 318.292C719.038 320.287 718.921 333.247 719.019 337.704C719.071 340.009 716.833 348.283 721.281 347.444C724.84 346.773 723.552 338.177 723.274 335.826C722.546 329.662 721.305 314.38 712.353 315.287" fill="#C1DEE2"/>
<path fill-rule="evenodd" clip-rule="evenodd" d="M719.291 347.145C702.95 348.621 686.233 347.173 669.824 347.753C661.224 348.058 652.632 348.543 644.03 348.827C640.31 348.95 636.586 348.955 632.864 348.982C631.084 348.994 622.983 350.073 627.994 353.602C630.213 355.165 637.285 353.906 639.831 353.876C643.656 353.831 647.478 353.672 651.3 353.522C660.152 353.176 668.999 352.696 677.856 352.457C686.328 352.227 694.805 352.178 703.277 351.949C707.492 351.834 711.765 351.705 715.943 351.09C716.886 350.951 719.948 350.84 720.603 349.789C721.222 348.795 720.787 347.001 719.291 347.145" fill="#89C5CC"/>
<path fill-rule="evenodd" clip-rule="evenodd" d="M638.979 334.877C638.891 335.085 638.891 335.085 638.979 334.877ZM646.055 332.726C646.313 332.835 646.313 332.835 646.055 332.726ZM645.724 332.666C649.537 336.553 643.673 341.193 640.101 337.4C636.309 333.373 643.269 332.679 645.724 332.666M641.679 326.786C628.544 329.123 633.194 346.629 645.463 344.099C650.849 342.989 653.929 337.563 652.075 332.351C651.351 330.314 649.772 328.079 647.574 327.438C646.478 327.118 645.508 327.621 644.464 327.503C643.468 327.391 642.915 326.563 641.679 326.786" fill="#C1DEE2"/>
<path fill-rule="evenodd" clip-rule="evenodd" d="M691.95 331.713C684.03 331.738 676.107 332.074 668.187 332.225C665.758 332.27 659.514 331.183 659.505 335.013C659.494 339.105 666.449 337.594 668.763 337.539C676.619 337.351 684.495 337.007 692.319 336.259C694.296 336.07 701.138 336.396 701.131 333.708C701.123 330.86 693.546 331.713 691.95 331.713" fill="#C1DEE2"/>
<path fill-rule="evenodd" clip-rule="evenodd" d="M710.869 358.421C691.279 358.947 671.718 359.13 652.144 360.133C644.822 360.508 637.51 360.787 630.178 360.787C628.766 360.787 625.922 360.24 624.593 361.129C620.986 363.541 625.093 365.612 627.444 365.742C643.525 366.634 659.838 364.413 675.909 363.912C685.318 363.619 694.728 363.532 704.131 363.053C706.696 362.922 709.262 362.771 711.823 362.572C713.296 362.458 717.191 362.771 718.381 361.909C723.579 358.147 712.621 358.374 710.869 358.421" fill="#89C5CC"/>
<path fill-rule="evenodd" clip-rule="evenodd" d="M620.986 368C620.802 373.079 620.783 378.07 621.447 383.121C621.708 385.108 621.829 387.364 624.158 387.869C626.274 388.327 627.347 386.727 627.785 384.953C628.855 380.62 627.914 374.384 627.901 369.882C627.896 367.657 627.893 365.166 625.143 364.663C623.045 364.279 621.066 365.795 620.986 368" fill="#89C5CC"/>
<path fill-rule="evenodd" clip-rule="evenodd" d="M731.634 380.245C699.922 381.916 668.252 383.375 636.518 384.716C634.043 384.821 614.817 384.612 621.538 391.316C623.614 393.387 628.963 391.984 631.648 391.853C635.682 391.655 639.719 391.503 643.754 391.298C659.75 390.483 675.789 390.264 691.773 389.35C700.57 388.847 709.346 388.06 718.097 387.036C722.259 386.549 727.426 386.599 731.324 384.968C733.33 384.129 735.494 380.04 731.634 380.245" fill="#89C5CC"/>
<path fill-rule="evenodd" clip-rule="evenodd" d="M713.4 354.48C710.988 356.881 712.228 361.62 712.41 364.589C712.66 368.674 712.964 372.762 713.474 376.825C713.806 379.464 713.63 383.571 715.038 385.851C716.687 388.521 720.317 388.225 721.808 385.646C723.127 383.365 722.459 378.566 722.425 376.038C722.378 372.542 722.16 369.041 721.953 365.552C721.779 362.637 722.44 357.964 720.836 355.469C719.206 352.933 715.66 352.232 713.4 354.48" fill="#89C5CC"/>
<path fill-rule="evenodd" clip-rule="evenodd" d="M640.917 373.119C640.634 373.337 640.634 373.337 640.917 373.119ZM646.549 372.413C651.805 373.47 643.307 379.606 640.621 375.395C640.202 374.737 639.983 373.928 640.657 373.356C641.271 372.834 641.657 373.758 642.238 373.51C643.238 373.082 645.482 372.373 646.549 372.413M645.824 367.375C642.236 367.659 637.303 367.881 635.527 371.478C633.141 376.309 637.221 381.04 641.942 381.775C646.485 382.483 653.267 379.967 653.631 374.669C653.924 370.397 649.861 367.048 645.824 367.375" fill="#89C5CC"/>
<path fill-rule="evenodd" clip-rule="evenodd" d="M675.781 369.93C672.067 369.99 664.765 368.892 661.529 370.702C658.327 372.494 659.755 375.684 662.676 376.447C664.607 376.951 667.763 376.138 669.773 376.056C672.418 375.948 675.064 375.925 677.711 375.888C682.161 375.829 686.609 375.879 691.06 375.879C695.605 375.879 700.229 376.003 704.766 375.669C710.508 375.247 710.353 370.947 704.738 370.41C695.2 369.497 685.351 369.78 675.781 369.93" fill="#89C5CC"/>
<path fill-rule="evenodd" clip-rule="evenodd" d="M666.293 418.08C666.293 420.122 668.105 418.08 668.092 418.08C668.105 418.08 666.293 416.037 666.293 418.08" fill="#89C5CC"/>
<path fill-rule="evenodd" clip-rule="evenodd" d="M625.297 401.637C625.414 407.574 625.491 413.517 625.744 419.45C625.825 421.326 625.287 424.989 627.561 425.945C630.092 427.01 630.879 424.356 631.171 422.558C632.094 416.862 631.189 410.358 631.1 404.594C631.07 402.659 631.489 399.965 629.291 399C627.498 398.212 625.261 399.674 625.297 401.637" fill="#89C5CC"/>
<path fill-rule="evenodd" clip-rule="evenodd" d="M722.935 401.73C723.085 402.084 723.085 402.084 722.935 401.73ZM723.147 401.67C723.269 401.72 723.76 401.927 723.147 401.67ZM675.183 396.871C666.069 397.014 656.948 397.122 647.839 397.512C643.952 397.679 640.019 397.813 636.145 398.18C633.401 398.44 626.585 398.547 624.805 400.79C621.132 405.419 628.92 404.156 630.598 403.78C633.651 403.096 636.767 402.877 639.886 402.712C646.653 402.355 653.423 402.164 660.199 402.028C678.574 401.658 696.962 401.714 715.34 401.632C717.119 401.624 720.335 400.908 721.978 401.628C723.625 402.349 723.532 404.123 723.703 406.182C723.93 408.922 722.123 414.143 723.5 416.448C725.636 420.023 728.742 416.987 729.217 414.381C729.873 410.78 728.833 406.456 727.815 403.013C726.379 398.157 724.385 397.964 719.688 397.584C714.199 397.141 708.731 396.872 703.224 396.821C693.879 396.735 684.528 396.726 675.183 396.871" fill="#89C5CC"/>
<path fill-rule="evenodd" clip-rule="evenodd" d="M711.234 421.414C691.464 423.71 671.132 422.357 651.257 422.438C646.424 422.458 641.587 422.497 636.758 422.731C634.208 422.854 628.163 422.151 626.416 424.119C622.733 428.266 629.367 428.869 631.789 428.698C636.686 428.349 641.594 428.191 646.504 428.153C663.796 428.019 681.187 428.826 698.465 427.973C705.704 427.615 712.781 426.377 719.886 424.993C721.46 424.687 732.235 422.638 726.091 420.183C722.46 418.732 715.048 420.969 711.234 421.414" fill="#89C5CC"/>
<path fill-rule="evenodd" clip-rule="evenodd" d="M653.512 413.822C653.375 413.999 653.375 413.999 653.512 413.822ZM653.38 413.791C653.333 413.918 653.188 414.232 653.38 413.791ZM652.133 412.183C652.162 412.22 652.279 412.371 652.133 412.183ZM652.085 412.171C652.561 412.739 652.881 413.373 653.046 414.072C648.95 415.182 647.372 411.868 652.085 412.171M651.826 412.016C651.827 412.017 652.403 412.259 651.826 412.016ZM645.097 407.079C642.446 410.38 640.258 414.227 643.563 417.998C646.518 421.37 652.463 421.805 656.214 419.554C660.077 417.235 659.744 412.352 657.049 409.165C655.313 407.113 653.907 407.17 651.389 406.835C649.675 406.607 646.551 405.274 645.097 407.079" fill="#89C5CC"/>
<path fill-rule="evenodd" clip-rule="evenodd" d="M672.5 413.189C672.5 417.585 691.481 415.693 694.858 415.688C697.687 415.684 714.791 417.244 713.563 412.72C712.554 409.003 695.707 410.851 692.119 410.845C689.018 410.841 672.5 408.712 672.5 413.189" fill="#89C5CC"/>
</g>
<g opacity="0.5">
<path fill-rule="evenodd" clip-rule="evenodd" d="M424.7 454.376C434.206 455.756 444.094 460.227 444.011 471.292C443.941 480.595 436.139 490.496 426.119 489.94C417.103 489.441 408.612 479.58 407.483 471.13C406.898 466.752 407.993 462.039 410.568 458.437C413.942 453.719 419.296 453.726 424.7 454.376M420.21 448.362C413.334 448.399 408.304 450.886 404.049 456.136C402.523 458.018 400.748 460.044 399.586 462.177C398.501 464.169 398.691 469.234 402.415 466.859C401.498 476.665 407.229 486.182 415.467 491.207C424.422 496.669 434.544 495.604 441.997 487.948C448.819 480.94 451.22 469.103 446.229 460.436C441.241 451.774 429.683 448.269 420.21 448.362" fill="#89C5CC"/>
<path fill-rule="evenodd" clip-rule="evenodd" d="M440.826 445.734C436.424 448.96 432.405 453.208 429.067 457.517C425.804 461.728 423.647 466.987 419.727 470.66C417.748 468.504 415.429 462.681 411.48 464.991C408.203 466.908 410.313 470.205 411.909 472.369C416.03 477.958 420.606 480.208 425.891 474.685C430.691 469.67 433.417 462.98 437.905 457.677C439.873 455.349 442.915 453.04 444.482 450.47C445.903 448.142 444.146 443.294 440.826 445.734" fill="#89C5CC"/>
</g>
<g opacity="0.5">
<path fill-rule="evenodd" clip-rule="evenodd" d="M607.175 95.8777C607.182 96.3175 607.188 96.7313 607.197 97.1116C607.403 105.416 607.284 114.146 606.609 122.431C606.376 125.292 604.295 128.917 601.921 124.974C600.877 123.24 601.024 119.68 601.131 117.061C601.16 116.358 601.186 115.724 601.186 115.21C601.184 112.288 601.337 109.336 601.491 106.375C601.792 100.588 602.095 94.7703 601.238 89.0864C601.221 88.9713 601.204 88.8606 601.189 88.7542C600.816 86.2547 600.791 86.082 598.042 86.1388C596.896 86.1626 595.75 86.1936 594.605 86.2245C593.478 86.255 592.351 86.2855 591.224 86.3091C590.104 86.3326 588.985 86.3542 587.866 86.3757C584.356 86.4432 580.846 86.5107 577.337 86.6392C576.752 86.6608 575.659 86.7978 574.281 86.9707C571.524 87.3164 567.624 87.8056 564.342 87.8028C564.343 87.8169 564.344 87.831 564.345 87.8452C564.347 87.8705 564.349 87.8959 564.349 87.9218C564.386 89.7337 563.919 91.7564 563.45 93.7884C563.058 95.4902 562.664 97.1985 562.563 98.7951C562.322 102.594 562.319 106.433 562.317 110.273C562.313 114.948 562.31 119.623 561.877 124.225C561.856 124.45 561.843 124.687 561.83 124.927C561.829 124.959 561.827 124.991 561.825 125.023C561.974 125 562.118 124.984 562.257 124.975C564.623 124.825 567.008 124.812 569.39 124.798C570.704 124.791 572.016 124.784 573.323 124.753C575.671 124.699 578.048 124.702 580.434 124.704C585.701 124.71 591.015 124.716 596.167 124.109C597.689 123.911 598.221 125.863 597.538 126.875C596.927 127.781 595.244 127.928 594.012 128.035C593.699 128.062 593.415 128.087 593.185 128.121C589.862 128.613 586.495 128.785 583.142 128.934C579.621 129.09 576.096 129.206 572.573 129.304C571.734 129.328 570.615 129.441 569.374 129.566C566.097 129.897 561.972 130.314 559.925 129.388C557.724 128.392 557.776 127.287 558.674 126.431C558.28 125.564 558.218 124.299 558.169 123.309C558.151 122.931 558.134 122.593 558.102 122.333C557.614 118.392 557.319 114.501 557.312 110.526C557.298 102.74 557.314 94.6528 559.468 87.1159C558.605 86.7382 558.085 86.1814 558.087 85.3788C558.097 81.3351 570.682 81.5409 576.665 81.6387C577.735 81.6562 578.593 81.6702 579.131 81.6559C583.489 81.542 587.848 81.5272 592.207 81.5508C593.128 81.5557 594.153 81.4954 595.215 81.433C597.474 81.3002 599.901 81.1576 601.852 81.611C606.978 82.801 607.101 90.9646 607.175 95.8777Z" fill="#89C5CC"/>
<path fill-rule="evenodd" clip-rule="evenodd" d="M639.235 82.4973C643.994 82.2455 648.756 82.1876 653.521 82.17C658.566 82.1446 663.618 82.2353 668.661 82.3904L668.778 82.3939C671.012 82.461 683.432 82.8341 677.726 85.929C677.394 86.1096 677.019 86.2605 676.61 86.3857C676.852 87.8188 676.881 89.2985 676.842 90.0113C676.695 92.7145 676.598 95.4207 676.501 98.1268C676.435 99.9607 676.369 101.795 676.287 103.628C676.063 108.692 675.849 113.757 675.675 118.824C675.653 119.446 675.686 120.259 675.723 121.166C675.844 124.163 676.007 128.18 674.379 129.665C672.95 130.968 671.974 130.707 671.316 129.822C667.228 131.009 658.832 130.623 654.611 130.429C653.593 130.382 652.819 130.346 652.405 130.346C651.665 130.347 650.289 130.439 648.553 130.556C641.324 131.041 627.829 131.948 627.802 128.384C627.799 128.041 627.91 127.734 628.12 127.458C627.547 126.874 627.032 126.016 626.701 124.945C625.513 121.101 625.401 116.954 625.313 112.968C625.188 107.34 625.187 101.705 625.186 96.0715C625.185 93.1783 625.184 90.2854 625.167 87.3938C624.394 86.356 624.853 85.169 625.817 84.3409C627.87 82.5789 632.966 82.5577 636.652 82.5423C637.644 82.5381 638.534 82.5344 639.235 82.4973ZM631.491 125.895C636.078 124.916 643.807 125.231 647.947 125.4C649.032 125.444 649.87 125.478 650.342 125.477C654.571 125.46 658.801 125.519 663.027 125.688C663.465 125.705 664.113 125.689 664.877 125.669C666.412 125.631 668.412 125.58 670.111 125.769C670.088 125.538 670.073 125.328 670.064 125.146C669.873 121.384 670.011 117.59 670.147 113.817V113.817C670.176 113.015 670.205 112.214 670.231 111.415C670.322 108.594 670.442 105.775 670.563 102.955L670.563 102.955L670.563 102.953C670.639 101.178 670.714 99.4033 670.783 97.6278C670.813 96.8487 670.768 95.7905 670.718 94.5999V94.5998C670.616 92.1775 670.49 89.2075 670.924 86.9264C669.359 86.8967 667.756 86.7858 666.285 86.6841C664.869 86.5861 663.575 86.4966 662.558 86.4965C661.268 86.4964 659.979 86.4924 658.689 86.4884H658.689H658.689H658.689C655.115 86.4775 651.543 86.4665 647.969 86.5372C647.631 86.5439 647.292 86.5505 646.952 86.557L646.952 86.557L646.952 86.557C642.032 86.652 637.07 86.7477 632.191 87.3959C631.905 87.4339 631.562 87.5072 631.181 87.5962C631.716 89.8318 631.454 92.9826 631.225 95.7421C631.113 97.0824 631.009 98.3304 631.008 99.3364C631.001 105.592 631.166 111.823 631.331 118.049L631.331 118.049L631.331 118.049C631.394 120.404 631.456 122.757 631.509 125.111C631.516 125.392 631.509 125.653 631.491 125.895Z" fill="#89C5CC"/>
<path fill-rule="evenodd" clip-rule="evenodd" d="M579.284 129.123C576.157 130.95 577.843 138.259 578.927 140.786C580.708 144.943 584.322 148.195 588.222 150.352C596.104 154.712 607.466 153.554 613.427 161.114C613.489 161.192 615.549 163.232 616.018 160.59C616.403 158.422 612.557 155.111 611.066 154.025C606.827 150.934 601.391 149.938 596.488 148.394C591.259 146.748 585.521 143.713 583.328 138.322C582.552 136.413 584.032 126.336 579.284 129.123" fill="#C1DEE2"/>
<path fill-rule="evenodd" clip-rule="evenodd" d="M650.779 132.637C647.913 133.427 649.809 137.371 649.804 139.345C649.799 141.809 649.011 144.387 647.493 146.353C643.643 151.338 636.104 152.085 630.452 153.515C626.348 154.553 616.529 156.78 616.145 162.331C615.716 168.529 624.384 160.986 625.117 160.677C633.219 157.705 643.701 157.131 649.955 150.589C652.537 147.888 654.062 144.284 654.305 140.564C654.441 138.469 654.465 131.63 650.779 132.637" fill="#C1DEE2"/>
<path fill-rule="evenodd" clip-rule="evenodd" d="M591.561 187.616C591.494 176.148 602.469 169.211 612.393 166.601C624.322 163.458 635.433 171.817 636.84 183.84C638.324 196.529 628.76 206.744 616.148 207.304C605.054 207.796 591.632 199.853 591.561 187.616ZM618.207 172.115C618.852 172.992 619.434 174.392 618.134 175.154C616.884 175.883 616.26 175.007 615.631 174.125C615.234 173.568 614.835 173.009 614.276 172.851C612.826 172.443 610.495 173.968 609.288 174.857C608.797 175.218 608.1 175.995 607.284 176.904C604.688 179.795 600.897 184.017 598.802 180.384C590.446 194.813 611.278 205.612 623.124 200.151C636.134 194.154 633.602 172.229 618.207 172.115Z" fill="#89C5CC"/>
<path fill-rule="evenodd" clip-rule="evenodd" d="M607.289 183.777C607.289 186.409 611.446 186.409 611.446 183.777C611.446 181.174 607.289 181.063 607.289 183.777" fill="#89C5CC"/>
<path fill-rule="evenodd" clip-rule="evenodd" d="M614.603 183.283C614.603 186.507 619.697 186.507 619.697 183.283C619.697 180.095 614.603 179.959 614.603 183.283" fill="#89C5CC"/>
<path fill-rule="evenodd" clip-rule="evenodd" d="M609.369 190.796C605.203 193.247 617.117 198.115 617.587 193.14C617.79 190.993 615.711 191.572 614.325 191.414C612.999 191.263 610.627 190.064 609.369 190.796" fill="#89C5CC"/>
<path fill-rule="evenodd" clip-rule="evenodd" d="M607.562 208.181C607.743 214.44 607.656 220.695 608.843 226.867C609.068 228.039 609.225 232.291 610.152 233.162C612.43 235.304 612.468 231.198 612.557 229.625C612.873 223.99 612.281 218.179 612.151 212.532C612.122 211.316 612.444 208.799 611.871 207.622C610.96 205.754 607.473 205.2 607.562 208.181" fill="#C1DEE2"/>
<path fill-rule="evenodd" clip-rule="evenodd" d="M603.106 203.106C593.973 213.357 581.396 212.602 568.726 213.5C562.031 213.974 555.262 214.948 549.876 219.278C547.37 221.293 545.21 223.816 543.758 226.691C543.124 227.948 540.114 235.201 544.634 233.481C546.237 232.87 547.815 228.074 548.852 226.655C550.827 223.953 553.354 221.722 556.385 220.272C562.232 217.475 569.214 217.523 575.554 217.168C582.181 216.797 589.294 216.45 595.386 213.568C598.252 212.213 600.94 210.522 603.246 208.343C604.071 207.564 605.838 206.241 605.969 205.05C606.12 203.689 604.812 201.197 603.106 203.106" fill="#C1DEE2"/>
<path fill-rule="evenodd" clip-rule="evenodd" d="M557 234.569C548.421 234.856 539.852 235.203 531.285 235.746C529.53 235.857 523.676 235.502 525.167 239.1C526.362 241.983 533.501 240.076 535.862 239.936C544.789 239.406 553.753 239.222 562.662 238.419C564.663 238.239 573.709 238.31 569.973 234.764C568.196 233.076 559.455 234.486 557 234.569" fill="#89C5CC"/>
<path fill-rule="evenodd" clip-rule="evenodd" d="M519.719 238.707C517.015 242.259 518.258 250.891 518.462 255.161C518.66 259.298 517.856 266.863 523.257 267.505C521.542 267.28 524.559 267.609 525.05 267.635C526.146 267.694 527.248 267.713 528.346 267.725C530.883 267.753 533.421 267.719 535.957 267.668C541.702 267.553 547.462 267.386 553.2 267.069C555.612 266.935 568.696 267.047 569.214 264.541C569.876 261.339 557.331 263.151 555.085 263.253C549.616 263.504 544.138 263.557 538.664 263.628C535.951 263.664 533.235 263.691 530.522 263.638C529.401 263.616 524.965 264.076 524.284 263.328C523.703 262.692 524.156 256.842 524.144 255.947C524.104 253.03 524.107 250.106 524.211 247.191C524.281 245.228 525.342 241.493 524.477 239.649C523.636 237.856 521.185 237.244 519.719 238.707" fill="#89C5CC"/>
<path fill-rule="evenodd" clip-rule="evenodd" d="M563.895 238.873C564.052 245.371 564.1 251.999 565.635 258.354C566.146 260.468 566.861 264.829 568.986 265.924C571.215 267.073 573.141 265.433 573.286 263.223C573.47 260.446 571.982 256.799 571.677 253.949C571.321 250.624 571.114 247.296 570.992 243.954C570.9 241.441 571.664 237.673 569.268 236.053C567.116 234.597 563.825 236.063 563.895 238.873" fill="#89C5CC"/>
<path fill-rule="evenodd" clip-rule="evenodd" d="M580.968 237.287C578.3 239.945 579.492 248.36 579.826 251.775C580.07 254.276 582.808 266.581 586.91 260.164C588.725 257.326 586.419 249.821 586.436 246.511C586.446 244.403 587.192 241.738 586.832 239.713C586.356 237.037 583.388 234.87 580.968 237.287" fill="#89C5CC"/>
<path fill-rule="evenodd" clip-rule="evenodd" d="M599.443 235.093C607.457 234.266 615.481 233.646 623.539 233.569C623.926 233.566 624.333 233.561 624.756 233.556C630.279 233.486 638.579 233.38 642.296 237.528C644.321 239.787 645.238 243.28 646.038 246.325C646.187 246.892 646.332 247.445 646.479 247.971C646.605 248.42 646.769 248.932 646.946 249.486C647.781 252.1 648.91 255.637 647.765 257.826C647.137 259.027 646.126 260.051 644.591 259.626C644.233 259.526 643.952 259.399 643.731 259.249C644.319 259.885 644.58 260.792 644.198 261.678C643.46 263.392 641.128 263.429 639.291 263.457C638.846 263.464 638.429 263.471 638.072 263.501C631.953 264.011 625.806 264.351 619.665 264.405C616.742 264.43 613.818 264.406 610.894 264.383C607.884 264.358 604.875 264.333 601.865 264.363C599.681 264.384 597.456 264.592 595.231 264.8C592.421 265.062 589.611 265.324 586.878 265.212C584.834 265.128 582.651 264.459 583.169 261.817C583.592 259.66 585.622 259.472 587.441 259.303C587.599 259.289 587.756 259.274 587.91 259.258C593.702 258.669 599.498 258.46 605.32 258.481C617.551 258.523 629.772 258.46 642.003 258.396C642.506 258.438 642.979 258.63 643.369 258.922C642.929 258.388 642.937 257.676 642.946 256.919C642.951 256.576 642.955 256.223 642.918 255.874C642.843 255.171 642.774 254.471 642.706 253.772C642.48 251.463 642.255 249.171 641.815 246.849C641.748 246.498 641.684 246.112 641.617 245.704C641.216 243.293 640.686 240.098 638.769 238.796C636.841 237.487 633.061 237.55 630.115 237.599C629.319 237.612 628.585 237.624 627.964 237.608C620.103 237.405 612.196 237.964 604.371 238.675C603.77 238.73 603.168 238.782 602.565 238.835C599.588 239.094 596.595 239.355 593.661 239.887C593.124 239.985 592.304 240.271 591.363 240.6C588.859 241.473 585.503 242.644 584.362 241.354C580.584 237.081 597.188 235.326 599.443 235.093Z" fill="#89C5CC"/>
<path fill-rule="evenodd" clip-rule="evenodd" d="M684.707 225.363C685.056 225.811 685.056 225.811 684.707 225.363ZM630.473 198.887C625.605 201.748 634.614 210.143 636.909 211.441C642.073 214.363 649.17 214.804 654.936 215.625C662.234 216.666 670.176 217.049 677.19 219.44C680.179 220.46 682.077 222.049 684.034 224.493C685.026 225.732 687.413 231.069 689.587 229.805C693.965 227.261 682.169 216.583 679.57 215.435C673.662 212.825 666.678 212.094 660.361 211.081C654.487 210.138 648.486 209.437 642.757 207.775C639.607 206.862 637.368 205.388 635.552 202.567C634.42 200.809 633.492 197.121 630.473 198.887" fill="#C1DEE2"/>
<path fill-rule="evenodd" clip-rule="evenodd" d="M705.091 231.681C699.479 231.806 693.878 232.238 688.278 232.669C685.136 232.911 681.995 233.153 678.853 233.341C677.87 233.4 676.886 233.453 675.902 233.506L675.902 233.506L675.902 233.506C673.133 233.655 670.361 233.804 667.606 234.083C667.188 234.125 666.703 234.165 666.174 234.208C663.834 234.4 660.644 234.662 658.605 235.516C656.736 234.102 653.851 235.304 653.806 237.824C653.729 242.414 653.771 246.923 654.331 251.485C654.461 252.544 655.13 257.905 656.586 260.696C656.068 263.332 658.315 264.07 660.406 264.272C668.506 265.054 676.999 264.447 685.378 263.849C689.639 263.544 693.871 263.242 698.006 263.125C699.381 263.086 700.774 263.071 702.175 263.055C706.747 263.004 711.407 262.952 715.833 262.087C716.011 262.052 716.202 262.018 716.402 261.982C718.152 261.669 720.565 261.236 720.749 259.31C720.859 258.154 720.207 257.096 719.116 256.947C719.191 255.984 719.07 254.933 718.981 254.161L718.981 254.161C718.96 253.981 718.941 253.816 718.927 253.671C718.661 250.993 717.994 248.332 717.335 245.705L717.335 245.705L717.335 245.705C717.187 245.114 717.04 244.525 716.897 243.939C716.739 243.289 716.593 242.516 716.435 241.682C715.879 238.74 715.179 235.042 713.32 233.325C711.369 231.525 708.194 231.604 705.65 231.668C705.46 231.673 705.273 231.678 705.091 231.681ZM714.966 257.235C714.301 255.493 714.106 253.138 713.921 250.899V250.899C713.805 249.494 713.692 248.134 713.47 247.002C713.302 246.151 713.165 245.255 713.026 244.344L713.026 244.344C712.688 242.131 712.337 239.832 711.506 237.893C710.394 235.296 709.404 235.395 707.062 235.63C706.627 235.674 706.144 235.722 705.606 235.759C703.219 235.921 700.834 236.127 698.45 236.334L698.45 236.334C697.306 236.433 696.162 236.532 695.018 236.626C690.122 237.028 685.223 237.338 680.324 237.647L680.324 237.647C677.462 237.828 674.599 238.009 671.737 238.208C669.491 238.364 667.298 238.791 665.115 239.216C663.386 239.553 661.662 239.889 659.922 240.088C659.897 240.683 659.847 241.281 659.799 241.849C659.734 242.624 659.674 243.346 659.687 243.937C659.744 246.559 659.975 249.164 660.207 251.774C660.243 252.175 660.278 252.576 660.313 252.978C660.355 253.459 660.459 254.077 660.574 254.763C660.751 255.824 660.956 257.046 661.001 258.172C661.213 258.17 661.424 258.171 661.631 258.171C661.899 258.172 662.162 258.173 662.415 258.169C668.583 258.061 674.747 257.874 680.912 257.637C681.699 257.607 682.486 257.576 683.273 257.546C688.773 257.332 694.273 257.118 699.778 257.054C701.965 257.029 704.18 257.098 706.403 257.167C709.262 257.255 712.132 257.344 714.966 257.235Z" fill="#89C5CC"/>
</g>
<path fill-rule="evenodd" clip-rule="evenodd" d="M275.084 318.334C280.293 321.476 285.41 322.994 287.813 322.374C293.837 320.82 294.39 298.768 289.729 290.074C285.068 281.38 261.107 277.591 259.899 294.816C259.48 300.794 261.989 306.13 265.695 310.483L259.049 341.48H278.353L275.084 318.334Z" fill="#B28B67"/>
<path fill-rule="evenodd" clip-rule="evenodd" d="M282.104 280.605C279.467 279.8 275.637 279.527 274.027 279.712C274.943 277.515 275.307 275.067 275.01 272.684C274.722 270.368 273.688 268.397 272.732 266.33C272.291 265.378 271.791 264.431 271.047 263.702C270.288 262.96 269.327 262.47 268.32 262.237C267.29 261.997 266.212 262.017 265.18 262.234C264.723 262.33 264.313 262.539 263.865 262.656C263.407 262.775 263.184 262.487 262.852 262.199C262.049 261.503 260.873 261.16 259.858 261.037C258.72 260.899 257.538 261.071 256.452 261.445C255.395 261.81 254.38 262.402 253.616 263.265C253.275 263.649 252.967 264.086 252.766 264.568C252.684 264.766 252.67 264.884 252.472 264.956C252.29 265.023 252.076 265.025 251.888 265.089C250.065 265.707 248.507 267.116 247.659 268.926C247.164 269.981 246.929 271.839 246.993 273.922C247.058 276.005 248.937 281.441 250.695 283.423C252.264 285.193 254.57 286.36 256.796 286.871C255.319 288.561 254.335 290.673 253.608 292.821C252.818 295.154 252.329 297.578 252.149 300.048C251.977 302.394 251.961 304.876 252.511 307.172C253.025 309.32 254.125 311.082 255.961 312.199C256.802 312.711 257.707 313.096 258.617 313.447C259.514 313.794 260.414 314.131 261.353 314.325C263.131 314.693 265.18 314.63 266.55 313.213C267.043 312.703 267.586 312.061 267.946 311.438C268.076 311.213 268.154 311.067 267.997 310.847C267.808 310.585 267.503 310.384 267.261 310.178C265.881 309.007 265.026 307.443 264.81 305.585C264.592 303.7 265.098 301.266 266.93 300.443C269.191 299.428 271.681 300.594 273.69 301.68C274.545 298.664 276.298 295.948 279.048 294.564C282.09 293.033 285.58 292.854 288.706 291.541C289.521 291.198 290.35 290.81 290.95 290.112C291.201 289.821 291.495 289.443 291.595 289.057C291.726 288.551 291.4 288.126 291.148 287.732C289.811 285.639 284.742 281.41 282.104 280.605Z" fill="#191847"/>
<path fill-rule="evenodd" clip-rule="evenodd" d="M257.441 549.145C291.646 549.145 319.375 522.658 319.375 489.984C319.375 457.311 291.646 430.824 257.441 430.824C223.235 430.824 195.507 457.311 195.507 489.984C195.507 522.658 223.235 549.145 257.441 549.145Z" fill="#C5CFD6"/>
<path fill-rule="evenodd" clip-rule="evenodd" d="M353.729 486.829C356.72 497.316 364.174 517.191 374.479 540.017L384.272 537.158C375.705 484.634 368.575 449.861 364.49 439.277C361.792 432.284 341.376 433.104 343.725 447.174C344.71 453.074 348.606 468.874 353.729 486.829ZM313.477 449.628C297.506 452.939 264.393 464.644 254.938 468.384C248.995 470.734 252.826 478.706 257.896 478.009C258.755 477.891 261.792 477.551 266.324 477.043C280.88 475.414 310.858 472.057 333.594 468.783C345.566 467.059 339.126 444.619 326.696 446.993C322.514 447.792 318.066 448.676 313.477 449.628Z" fill="#B28B67"/>
<path fill-rule="evenodd" clip-rule="evenodd" d="M365.116 433.35C363.484 428.018 289.262 409.092 289.262 409.092H283.179V414.764L334.325 440.818C334.257 441.659 334.299 442.547 334.464 443.484C334.094 462.799 342.355 477.229 350.534 491.515C355.882 500.857 361.196 510.138 364.038 520.684L382.828 517.879C382.281 516.478 381.415 510.162 380.232 501.526C377.248 479.75 372.243 443.226 365.222 433.563C365.197 433.53 365.172 433.496 365.147 433.463C365.138 433.425 365.128 433.387 365.116 433.35Z" fill="#1F28CF"/>
<path fill-rule="evenodd" clip-rule="evenodd" d="M287.429 456.292C282.749 455.354 278.44 454.517 274.752 453.87C250.933 449.689 243.987 436.93 248.094 409.092H291.98C299.149 411.152 336.406 426.787 355.736 435.103C368.53 440.607 364.497 460.448 357.252 465.612C357.212 465.928 357.082 466.143 356.85 466.24C329.381 477.633 305.957 476.783 290.915 476.237C284.615 476.008 279.785 475.833 276.745 476.633L271.981 461.594L287.429 456.292Z" fill="#2B44FF"/>
<path fill-rule="evenodd" clip-rule="evenodd" d="M259.975 468.028C259.915 466.859 258.93 465.922 257.767 466.055C256.088 466.248 253.862 466.593 252.733 467.145C250.777 468.099 247.343 470.582 247.343 470.582C248.45 472.852 267.231 511.386 267.231 511.386C267.231 511.386 273.26 510.411 272.009 506.78C270.758 503.149 269.991 500.718 269.991 500.718L269.203 477.829C269.184 477.266 268.704 476.831 268.142 476.866L264.793 477.077C264.793 477.077 261.767 474.626 260.801 472.643C260.263 471.54 260.055 469.565 259.975 468.028Z" fill="#E4E4E4"/>
<path fill-rule="evenodd" clip-rule="evenodd" d="M372.41 535.055C371.333 534.596 370.057 535.071 369.668 536.176C369.105 537.771 368.439 539.924 368.439 541.181C368.439 543.358 369.164 547.535 369.164 547.535C371.688 547.535 414.53 547.535 414.53 547.535C414.53 547.535 416.299 541.685 412.489 541.218C408.679 540.752 406.159 540.376 406.159 540.376L385.257 531.051C384.742 530.822 384.14 531.063 383.925 531.584L382.646 534.688C382.646 534.688 379.119 536.334 376.914 536.334C375.689 536.334 373.825 535.657 372.41 535.055Z" fill="#E4E4E4"/>
<path fill-rule="evenodd" clip-rule="evenodd" d="M351.29 416.847L325.633 397.993L319.962 412.023L345.369 422.567C352.554 431.013 356.572 434.534 357.423 433.13C358.14 431.946 357.579 430.838 357.063 429.817C356.661 429.021 356.286 428.279 356.562 427.596C357.193 426.034 362.02 426.199 366.594 426.551C371.167 426.903 369.835 424.866 368.732 423.86C364.063 421.064 358.249 418.726 351.29 416.847ZM216.739 450.068C219.097 445.283 227.123 398.644 227.123 398.644L243.932 398.71C243.932 398.71 228.364 449.001 227.123 452.078C225.512 456.075 228.25 461.883 230.106 465.821C230.393 466.43 230.659 466.995 230.885 467.501C228.309 468.655 227.072 467.26 225.767 465.79C224.293 464.13 222.734 462.373 219.064 464.082C217.646 464.742 216.304 465.523 214.993 466.285C210.465 468.919 206.305 471.339 200.646 467.845C199.748 467.291 198.765 465.205 201.141 463.575C207.059 459.514 215.587 452.407 216.739 450.068Z" fill="#B28B67"/>
<path fill-rule="evenodd" clip-rule="evenodd" d="M274.89 328.064L281.846 326.87C307.652 349.178 318.251 392.035 349.883 414.738L342.269 424.182C287.394 417.382 273.793 365.108 274.89 328.064Z" fill="#E87613"/>
<path fill-rule="evenodd" clip-rule="evenodd" d="M244.571 415.531C244.571 415.531 286.403 415.531 306.112 415.531C308.924 415.531 308.394 411.467 307.988 409.417C303.296 385.752 284.982 360.243 284.982 326.558L267.231 323.772C252.548 347.403 247.471 376.497 244.571 415.531Z" fill="#DDE3E9"/>
<path fill-rule="evenodd" clip-rule="evenodd" d="M246.929 346.722C243.699 346.491 240.784 345.138 238.941 341.811C232.453 330.095 234.796 323.645 241.73 321.525C245.542 320.359 249.128 321.155 253.421 322.107C256.934 322.887 260.922 323.772 265.894 323.772C266.376 323.772 266.814 323.804 267.212 323.866L273.102 324.202C273.102 324.202 297.018 405.313 286.294 432.434H237.651C234.885 439.081 232.173 444.882 229.618 449.337H216.419C214.999 403.392 232.382 368.039 246.929 346.722Z" fill="#FF9B21"/>
<path fill-rule="evenodd" clip-rule="evenodd" d="M237.651 432.434C241.28 423.712 245.002 413.532 248.583 403.018C249.916 414.596 252.136 426.225 255.832 432.434H237.651Z" fill="black" fill-opacity="0.1"/>
<path fill-rule="evenodd" clip-rule="evenodd" d="M501.808 267.544C496.592 270.688 491.467 272.207 489.061 271.587C483.028 270.032 482.473 247.962 487.141 239.261C491.809 230.56 515.806 226.768 517.016 244.007C517.435 249.99 514.923 255.329 511.211 259.686L517.867 290.707H498.534L501.808 267.544Z" fill="#B28B67"/>
<path fill-rule="evenodd" clip-rule="evenodd" d="M491.498 233.524C491.941 233.259 492.867 232.702 493.336 232.5C493.448 232.451 494.225 231.896 494.246 231.904C494.835 232.102 496.54 232.836 496.686 233.469C496.709 233.517 496.731 233.562 496.753 233.602C496.995 234.041 497.216 234.491 497.428 234.947C497.892 235.947 498.292 236.992 498.675 238.029C499.42 240.049 500.067 242.115 500.663 244.187C501.269 246.295 501.783 248.429 502.359 250.546C503.187 253.593 504.248 256.565 505.07 259.61C505.596 261.555 505.888 263.522 505.75 265.524C505.749 265.548 505.748 265.572 505.746 265.596C505.745 265.606 505.743 265.616 505.743 265.626C505.719 265.934 505.686 266.242 505.641 266.551C505.602 266.816 505.563 267.081 505.521 267.347C504.77 265.848 504.196 264.197 503.587 262.63C503.527 262.476 503.471 262.322 503.415 262.167C503.219 261.849 503.019 261.533 502.816 261.219C501.54 259.236 500.258 257.261 499.034 255.243C496.832 251.613 494.651 247.906 492.041 244.573C491.27 243.588 490.481 242.619 489.72 241.627C489.287 241.062 488.865 240.488 488.457 239.903C488.165 239.486 486.897 238.029 487.356 237.154C487.591 236.706 490.349 234.209 491.498 233.524Z" fill="#2C2C2C"/>
<path fill-rule="evenodd" clip-rule="evenodd" d="M493.197 232.573C492.766 232.718 492.976 231.822 493.393 231.506C495.325 230.045 502.713 229.515 509.142 230.85C513.448 231.744 518.457 233.969 521.897 236.83C524.998 239.409 527.131 243.543 528.229 247.537C529.382 251.731 529.556 256.103 528.914 260.404C528.773 261.349 528.47 262.249 528.301 263.174C528.111 264.215 528.013 265.218 527.674 266.231C527.466 266.851 527.113 267.459 526.936 268.083C526.734 268.795 526.857 269.453 527.005 270.177C527.245 271.357 527.543 272.534 527.967 273.661C528.603 275.354 529.375 276.939 529.859 278.695C530.503 281.031 533.196 288.635 531.228 290.707H493.755C494.699 288.133 497.531 285.104 498.105 282.349C498.442 280.726 498.603 277.181 498.638 277.052C499.483 271.231 501.132 268.452 502.164 267.443C503.197 266.434 504.573 266.124 504.643 265.249C504.936 261.629 503.497 258.162 502.442 254.784C501.184 250.758 500.262 246.633 498.966 242.62C498.392 240.844 495.433 231.822 493.197 232.573Z" fill="#8991DC"/>
<path fill-rule="evenodd" clip-rule="evenodd" d="M507.748 249.74C508.052 243.613 507.748 241.22 506.335 236.737H507.206C508.584 238.516 509.736 243.958 508.441 249.74H507.748ZM524.824 249.451C524.976 249.079 525.131 248.698 525.292 248.308L525.846 248.574C524.098 254.966 521.973 259.901 514.673 264.038L514.105 263.641C521.009 258.786 522.489 255.164 524.824 249.451ZM514.473 241.805C514.4 242.36 514.33 242.9 514.262 243.427C513.212 251.526 512.547 256.661 506.697 265.975L507.36 266.178C513.772 257.54 514.789 250.49 515.092 241.855L514.473 241.805ZM520.788 268.056L521.355 268.745C518.515 269.34 516.583 271.429 514.369 273.825C512.026 276.359 509.366 279.235 504.979 281.046L504.164 280.553C508.953 278.063 511.181 275.588 513.127 273.427C515.141 271.19 516.852 269.289 520.788 268.056Z" fill="black" fill-opacity="0.2"/>
<path fill-rule="evenodd" clip-rule="evenodd" d="M530.729 358.73L500.461 457.876L485.799 542.193H474.302L489.796 358.73H530.729Z" fill="#997659"/>
<path fill-rule="evenodd" clip-rule="evenodd" d="M541.558 358.73C539.502 413.166 541.921 441.246 542.381 446.191C542.841 451.137 549.142 483.206 564.058 543.853L551.808 539.638C528.234 484.015 520.201 455.107 517.498 447.803C514.794 440.499 507.613 410.808 495.955 358.73H541.558Z" fill="#B28B67"/>
<path fill-rule="evenodd" clip-rule="evenodd" d="M561.343 538.846C562.421 538.387 563.698 538.863 564.087 539.968C564.65 541.565 565.316 543.72 565.316 544.979C565.316 547.159 564.591 551.341 564.591 551.341C562.067 551.341 519.225 551.341 519.225 551.341C519.225 551.341 517.456 545.484 521.266 545.017C525.076 544.55 527.596 544.173 527.596 544.173L548.497 534.838C549.012 534.608 549.615 534.849 549.83 535.37L551.108 538.478C551.108 538.478 554.636 540.127 556.841 540.127C558.066 540.127 559.929 539.449 561.343 538.846Z" fill="#E4E4E4"/>
<path fill-rule="evenodd" clip-rule="evenodd" d="M485.735 538.846C486.814 538.387 488.09 538.863 488.48 539.968C489.042 541.565 489.708 543.72 489.708 544.979C489.708 547.159 488.983 551.341 488.983 551.341C486.459 551.341 443.617 551.341 443.617 551.341C443.617 551.341 441.849 545.484 445.659 545.017C449.469 544.55 451.989 544.173 451.989 544.173L472.889 534.838C473.404 534.608 474.007 534.849 474.222 535.37L475.501 538.478C475.501 538.478 479.028 540.127 481.233 540.127C482.458 540.127 484.321 539.449 485.735 538.846Z" fill="#E4E4E4"/>
<path fill-rule="evenodd" clip-rule="evenodd" d="M534.751 358.73L521.882 409.244H482.573L488.434 358.73H534.751Z" fill="#69A1AC"/>
<path fill-rule="evenodd" clip-rule="evenodd" d="M541.99 358.73C548.342 377.806 544.403 409.244 544.403 409.244H504.29L493.26 358.73H541.99Z" fill="#89C5CC"/>
<path fill-rule="evenodd" clip-rule="evenodd" d="M585.759 384.137C582.756 379.732 562.514 320.448 562.514 320.448L545.056 322.968C545.056 322.968 574.082 384.702 575.74 387.573C577.894 391.303 575.987 397.43 574.693 401.585C574.493 402.227 574.307 402.823 574.154 403.355C576.869 404.137 577.902 402.585 578.992 400.949C580.222 399.102 581.524 397.146 585.402 398.325C586.9 398.781 588.339 399.366 589.746 399.937C594.603 401.912 599.065 403.726 604.191 399.48C605.004 398.807 605.689 396.607 603.107 395.326C596.673 392.133 587.227 386.291 585.759 384.137ZM435.31 381.073L454.814 355.893L464.141 367.801L442.587 384.933C437.997 395.025 435.099 399.515 433.894 398.401C432.877 397.462 433.111 396.243 433.327 395.12C433.495 394.245 433.652 393.429 433.197 392.849C432.159 391.524 427.558 393.013 423.251 394.612C418.945 396.212 419.667 393.888 420.452 392.619C424.176 388.645 429.128 384.797 435.31 381.073Z" fill="#B28B67"/>
<path fill-rule="evenodd" clip-rule="evenodd" d="M502.336 278.466L495.273 278.254C489.795 318.123 437.639 352.105 436.226 366.92C435.708 372.353 439.871 374.477 438.139 376.353L448.025 381.645C449.295 379.663 452.989 382.442 459.437 379.229C465.886 376.016 508.717 323.866 502.336 278.466Z" fill="#DB2721"/>
<path fill-rule="evenodd" clip-rule="evenodd" d="M512.718 268.898C514.879 268.439 517.004 269.819 517.463 271.98L518.283 275.832C532.665 283.979 569.027 309.256 585.207 363.548C586.907 369.251 585.753 372.596 584.83 375.269C584.2 377.097 583.677 378.611 584.251 380.35L572.972 385.232C572.787 383.914 571.167 383.12 569.078 382.095C566.039 380.605 562.007 378.628 559.947 373.846C557.995 369.314 555.278 363.692 552.1 357.46C553.106 366.164 552.579 374.373 549.918 381.484C543.279 399.226 488.983 388.423 481.212 372.367C477.066 363.799 480.101 355.691 484.116 344.966C489.212 331.353 495.885 313.525 491.45 285.194L489.885 277.838C489.426 275.677 490.805 273.553 492.966 273.094L512.718 268.898Z" fill="#FF4133"/>
</svg>
