<?xml version="1.0" encoding="UTF-8" standalone="no"?>
<svg
   xmlns:dc="http://purl.org/dc/elements/1.1/"
   xmlns:cc="http://creativecommons.org/ns#"
   xmlns:rdf="http://www.w3.org/1999/02/22-rdf-syntax-ns#"
   xmlns:svg="http://www.w3.org/2000/svg"
   xmlns="http://www.w3.org/2000/svg"
   xmlns:sodipodi="http://sodipodi.sourceforge.net/DTD/sodipodi-0.dtd"
   xmlns:inkscape="http://www.inkscape.org/namespaces/inkscape"
   version="1.1"
   viewBox="0 0 20 20"
   enable-background="new 0 0 129 129"
   id="svg14"
   sodipodi:docname="menu.svg"
   width="20"
   height="20"
   inkscape:version="0.92.3 (2405546, 2018-03-11)">
  <metadata
     id="metadata20">
    <rdf:RDF>
      <cc:Work
         rdf:about="">
        <dc:format>image/svg+xml</dc:format>
        <dc:type
           rdf:resource="http://purl.org/dc/dcmitype/StillImage" />
      </cc:Work>
    </rdf:RDF>
  </metadata>
  <defs
     id="defs18" />
  <sodipodi:namedview
     pagecolor="#ffffff"
     bordercolor="#666666"
     borderopacity="1"
     objecttolerance="10"
     gridtolerance="10"
     guidetolerance="10"
     inkscape:pageopacity="0"
     inkscape:pageshadow="2"
     inkscape:window-width="1366"
     inkscape:window-height="749"
     id="namedview16"
     showgrid="false"
     inkscape:zoom="1.8294574"
     inkscape:cx="12.184746"
     inkscape:cy="18.197457"
     inkscape:window-x="-8"
     inkscape:window-y="-8"
     inkscape:window-maximized="1"
     inkscape:current-layer="svg14" />
  <g
     id="g12"
     transform="matrix(0.17211704,0,0,0.17211704,-1.1015491,-1.1015491)"
     style="fill:#ffffff">
    <g
       id="g10"
       style="fill:#ffffff">
      <path
         d="m 10.5,58.9 h 44.3 c 2.3,0 4.1,-1.8 4.1,-4.1 V 10.5 C 58.9,8.2 57.1,6.4 54.8,6.4 H 10.5 c -2.3,0 -4.1,1.8 -4.1,4.1 v 44.3 c 0,2.2 1.9,4.1 4.1,4.1 z M 14.6,14.6 H 50.7 V 50.7 H 14.6 Z"
         id="path2"
         inkscape:connector-curvature="0"
         style="fill:#ffffff" />
      <path
         d="m 122.6,10.5 c 0,-2.3 -1.8,-4.1 -4.1,-4.1 H 74.2 c -2.3,0 -4.1,1.8 -4.1,4.1 v 44.3 c 0,2.3 1.8,4.1 4.1,4.1 h 44.3 c 2.3,0 4.1,-1.8 4.1,-4.1 z m -8.2,40.2 H 78.3 V 14.6 h 36.1 z"
         id="path4"
         inkscape:connector-curvature="0"
         style="fill:#ffffff" />
      <path
         d="m 10.5,122.6 h 44.3 c 2.3,0 4.1,-1.8 4.1,-4.1 V 74.2 c 0,-2.3 -1.8,-4.1 -4.1,-4.1 H 10.5 c -2.3,0 -4.1,1.8 -4.1,4.1 v 44.3 c 0,2.2 1.9,4.1 4.1,4.1 z m 4.1,-44.3 h 36.1 v 36.1 H 14.6 Z"
         id="path6"
         inkscape:connector-curvature="0"
         style="fill:#ffffff" />
      <path
         d="M 118.5,70.1 H 74.2 c -2.3,0 -4.1,1.8 -4.1,4.1 v 44.3 c 0,2.3 1.8,4.1 4.1,4.1 h 44.3 c 2.3,0 4.1,-1.8 4.1,-4.1 V 74.2 c 0,-2.2 -1.9,-4.1 -4.1,-4.1 z m -4.1,44.3 H 78.3 V 78.3 h 36.1 z"
         id="path8"
         inkscape:connector-curvature="0"
         style="fill:#ffffff" />
    </g>
  </g>
</svg>
