<svg width="25" height="25" viewBox="0 0 25 25" fill="none" xmlns="http://www.w3.org/2000/svg">
<path d="M9.57031 25C11.7306 25 13.4031 24.7932 14.7448 24.3706C14.7163 24.218 14.6973 24.062 14.6973 23.9014C14.6973 23.1838 14.9956 22.5361 15.4724 22.0703C14.9956 21.6045 14.6973 20.9568 14.6973 20.2393C14.6973 19.5217 14.9956 18.874 15.4724 18.4082C14.9956 17.9424 14.6973 17.2947 14.6973 16.5771C14.6973 15.8596 14.9956 15.2119 15.4724 14.7461C14.9956 14.2803 14.6973 13.6326 14.6973 12.915C14.6973 12.0674 15.1157 11.3203 15.7518 10.8534C15.3162 10.4546 14.8508 10.0971 14.3625 9.7826C14.5609 9.53274 14.6973 9.23042 14.6973 8.88672C14.6973 8.07762 14.0415 7.42188 13.2324 7.42188H5.9082C5.09911 7.42188 4.44336 8.07762 4.44336 8.88672C4.44336 9.22966 4.57935 9.53102 4.77657 9.7805C1.9331 11.6123 0 14.9294 0 18.4082C0 24.317 5.48267 25 9.57031 25V25ZM9.56249 17.8904C8.35075 17.8904 7.36523 16.9048 7.36523 15.6931C7.36523 14.7366 7.98321 13.9296 8.83789 13.6284V12.5488C8.83789 12.1441 9.16557 11.8164 9.57031 11.8164C9.97505 11.8164 10.3027 12.1441 10.3027 12.5488V13.6333C11.1494 13.9387 11.7598 14.7425 11.7598 15.6931C11.7598 16.098 11.4321 16.4255 11.0273 16.4255C10.6224 16.4255 10.2949 16.098 10.2949 15.6931C10.2949 15.2889 9.96647 14.9607 9.56249 14.9607C9.15833 14.9607 8.83007 15.2889 8.83007 15.6931C8.83007 16.0973 9.15833 16.4255 9.56249 16.4255C10.774 16.4255 11.7598 17.4112 11.7598 18.6228C11.7598 19.5734 11.1494 20.3772 10.3027 20.6827V21.3379C10.3027 21.7426 9.97505 22.0703 9.57031 22.0703C9.16557 22.0703 8.83789 21.7426 8.83789 21.3379V20.6875C7.98321 20.3865 7.36523 19.5793 7.36523 18.6228C7.36523 18.218 7.69272 17.8904 8.09765 17.8904C8.50239 17.8904 8.83007 18.218 8.83007 18.6228C8.83007 19.0269 9.15833 19.3552 9.56249 19.3552C9.96647 19.3552 10.2949 19.0269 10.2949 18.6228C10.2949 18.2186 9.96647 17.8904 9.56249 17.8904Z" fill="white"/>
<path d="M23.9014 22.8027H17.2607C16.654 22.8027 16.1621 23.2946 16.1621 23.9014C16.1621 24.5081 16.654 25 17.2607 25H23.9014C24.5081 25 25 24.5081 25 23.9014C25 23.2946 24.5081 22.8027 23.9014 22.8027Z" fill="white"/>
<path d="M23.9014 19.1406H17.2607C16.654 19.1406 16.1621 19.6325 16.1621 20.2393C16.1621 20.846 16.654 21.3379 17.2607 21.3379H23.9014C24.5081 21.3379 25 20.846 25 20.2393C25 19.6325 24.5081 19.1406 23.9014 19.1406Z" fill="white"/>
<path d="M23.9014 15.4785H17.2607C16.654 15.4785 16.1621 15.9704 16.1621 16.5771C16.1621 17.1839 16.654 17.6758 17.2607 17.6758H23.9014C24.5081 17.6758 25 17.1839 25 16.5771C25 15.9704 24.5081 15.4785 23.9014 15.4785Z" fill="white"/>
<path d="M23.9014 11.8164H17.2607C16.654 11.8164 16.1621 12.3083 16.1621 12.915C16.1621 13.5218 16.654 14.0137 17.2607 14.0137H23.9014C24.5081 14.0137 25 13.5218 25 12.915C25 12.3083 24.5081 11.8164 23.9014 11.8164Z" fill="white"/>
<path d="M11.6327 1.46484C11.3293 0.614166 10.524 0 9.57032 0C8.6155 0 7.80087 0.612259 7.49818 1.46484H5.17579C4.94043 1.46484 4.71936 1.57776 4.58146 1.76888C4.44413 1.9598 4.40618 2.20585 4.48133 2.42901L5.62478 5.95703H13.5161L14.6593 2.42901C14.7345 2.20585 14.6965 1.9598 14.5592 1.76888C14.4213 1.57776 14.2002 1.46484 13.9648 1.46484H11.6327Z" fill="white"/>
</svg>
